<svg xmlns="http://www.w3.org/2000/svg" width="1021" height="607" viewBox="0 0 1021 607" version="1.1"><path d="M 830.500 236.868 C 828.183 237.356, 826.964 238.581, 825.145 242.247 C 823.163 246.244, 822.649 249.384, 821.898 262.102 C 820.974 277.727, 819.402 290.043, 818.194 291.117 C 817.812 291.456, 815.252 292.479, 812.504 293.390 C 807.809 294.947, 807.431 294.942, 806.244 293.319 C 803.375 289.396, 803.117 285.193, 805.078 274.320 C 807.210 262.498, 807.602 248.047, 805.883 244.684 C 803.814 240.639, 801.146 239.254, 797.145 240.151 C 795.140 240.600, 792.375 241.198, 791 241.481 C 789.625 241.763, 787.498 242.783, 786.274 243.747 C 783.425 245.991, 782.429 252.726, 780.913 280 C 780.069 295.177, 779.397 300.928, 778.325 302.147 C 777.528 303.053, 774.819 304.312, 772.304 304.945 C 761.425 307.684, 757.371 311.913, 759.166 318.648 C 760.263 322.767, 766.238 328, 769.844 328 C 775.107 328, 776.447 330.008, 776.280 337.644 C 775.773 360.871, 775.801 368.134, 776.401 368.734 C 776.773 369.106, 779.909 369.590, 783.371 369.811 C 788.340 370.127, 790.529 369.771, 793.769 368.118 C 798.301 365.806, 797.757 367.536, 799.956 348.432 C 800.530 343.445, 801 337.505, 801 335.231 C 801 332.958, 801.484 328.842, 802.075 326.084 C 803.206 320.811, 806.179 317.985, 812.168 316.490 C 816.661 315.369, 817.270 318.063, 817.124 338.421 C 817.053 348.364, 817.334 356.995, 817.747 357.600 C 819.325 359.907, 823.100 361, 829.490 361 L 836.112 361 838.306 356.250 C 840.327 351.874, 840.500 349.964, 840.500 332 L 840.500 312.500 843.302 308.837 C 844.844 306.822, 846.725 304.936, 847.482 304.645 C 851.419 303.135, 849.932 287.323, 845.678 285.456 C 843.648 284.565, 843.501 283.819, 843.513 274.500 C 843.520 269, 844.052 260.411, 844.694 255.412 C 845.982 245.400, 845.205 239.354, 842.364 237.277 C 840.549 235.949, 835.663 235.781, 830.500 236.868 M 650.751 243.711 C 647.155 244.606, 647.341 253.527, 651.081 259.614 C 653.159 262.996, 656.905 264, 667.440 264 C 670.278 264, 673.140 264.540, 673.800 265.200 C 675.479 266.879, 675.332 281.074, 673.587 285.730 C 672.810 287.803, 671.187 296.700, 669.982 305.500 C 668.776 314.300, 666.978 325.775, 665.986 331 C 664.971 336.344, 663.874 348.450, 663.479 358.673 L 662.776 376.845 667.109 379.055 C 669.587 380.320, 674.117 381.480, 677.694 381.768 C 683.726 382.252, 683.982 382.177, 684.949 379.635 C 686.169 376.424, 687.448 368.624, 689.560 351.500 C 690.442 344.350, 691.800 334.900, 692.578 330.500 C 694.779 318.040, 699 286.239, 699 282.113 C 699 280.071, 699.374 277.973, 699.831 277.450 C 700.289 276.928, 701.186 274.658, 701.824 272.407 L 702.986 268.315 707.743 269.098 C 710.359 269.528, 717.057 269.908, 722.628 269.940 C 730.694 269.988, 733.022 269.678, 734.068 268.418 C 735.651 266.511, 735.980 252.593, 734.478 251.084 C 733.511 250.111, 723.235 249.024, 681.500 245.480 C 657.944 243.479, 652.857 243.186, 650.751 243.711 M 872.272 257.510 C 865.062 261.160, 860.999 266.518, 860.349 273.233 C 859.899 277.877, 860.201 279.063, 862.902 283.258 C 867.776 290.827, 877.008 293.865, 875.376 287.363 C 875.006 285.888, 873.651 282.841, 872.364 280.591 C 869.075 274.841, 869.308 271.981, 873.283 269.275 C 876.177 267.304, 876.978 267.180, 880.276 268.193 C 882.721 268.943, 884 269.937, 884 271.086 C 884 274.355, 882.792 276, 880.393 276 C 878.755 276, 878 276.568, 878 277.800 C 878 280.750, 880.121 282, 885.127 282 C 889.366 282, 890.178 281.612, 892.989 278.250 C 895.684 275.025, 896.040 273.960, 895.533 270.645 C 894.260 262.328, 888.629 256.031, 881.826 255.318 C 878.509 254.969, 876.281 255.481, 872.272 257.510 M 739 283.933 C 734.817 285.207, 723.941 290.870, 719.731 293.966 C 714.919 297.505, 709.083 309.335, 705.858 322.088 C 703.607 330.992, 703.665 338.193, 706.102 352 C 707.192 358.178, 707.605 358.859, 714.447 365.750 L 721.645 373 730.294 373 C 737.250 373, 739.976 372.535, 744.221 370.625 C 752.841 366.746, 757.884 362.446, 760.564 356.690 C 764.310 348.644, 763.932 346.902, 757.515 342.642 C 754.499 340.639, 751.535 339, 750.929 339 C 750.323 339, 746.973 341.740, 743.486 345.089 C 736.826 351.484, 731.450 353.852, 728.621 351.637 C 725.732 349.374, 724.072 335.379, 725.366 324.208 C 726.165 317.317, 726.468 316.658, 730.881 312.208 C 733.449 309.619, 737.787 306.375, 740.520 305 C 743.253 303.625, 746.841 301.602, 748.495 300.503 C 750.148 299.405, 751.697 298.383, 751.938 298.232 C 752.179 298.081, 751.279 294.593, 749.938 290.482 C 747.609 283.340, 747.366 283.010, 744.500 283.089 C 742.850 283.135, 740.375 283.515, 739 283.933 M 880 298.536 C 878.625 299.301, 875.363 300.226, 872.752 300.592 C 864.628 301.730, 863.095 306.623, 861.037 338 C 859.427 362.562, 859.330 373.722, 860.715 375.111 C 861.383 375.781, 864.363 376.531, 867.337 376.778 C 872.460 377.203, 872.963 377.028, 876.937 373.438 C 879.243 371.355, 881.765 368.421, 882.542 366.919 C 884.228 363.659, 887.453 320.894, 886.759 310.998 C 886.507 307.414, 885.450 302.848, 884.401 300.821 C 882.582 297.305, 882.392 297.206, 880 298.536" stroke="none" fill="#453271" fill-rule="evenodd"/><path d="M 830.500 236.868 C 828.183 237.356, 826.964 238.581, 825.145 242.247 C 823.163 246.244, 822.649 249.384, 821.898 262.102 C 820.974 277.727, 819.402 290.043, 818.194 291.117 C 817.812 291.456, 815.252 292.479, 812.504 293.390 C 807.809 294.947, 807.431 294.942, 806.244 293.319 C 803.375 289.396, 803.117 285.193, 805.078 274.320 C 807.210 262.498, 807.602 248.047, 805.883 244.684 C 803.814 240.639, 801.146 239.254, 797.145 240.151 C 795.140 240.600, 792.375 241.198, 791 241.481 C 789.625 241.763, 787.498 242.783, 786.274 243.747 C 783.425 245.991, 782.429 252.726, 780.913 280 C 780.069 295.177, 779.397 300.928, 778.325 302.147 C 777.528 303.053, 774.819 304.312, 772.304 304.945 C 761.425 307.684, 757.371 311.913, 759.166 318.648 C 760.263 322.767, 766.238 328, 769.844 328 C 775.107 328, 776.447 330.008, 776.280 337.644 C 775.773 360.871, 775.801 368.134, 776.401 368.734 C 776.773 369.106, 779.909 369.590, 783.371 369.811 C 788.340 370.127, 790.529 369.771, 793.769 368.118 C 798.301 365.806, 797.757 367.536, 799.956 348.432 C 800.530 343.445, 801 337.505, 801 335.231 C 801 332.958, 801.484 328.842, 802.075 326.084 C 803.206 320.811, 806.179 317.985, 812.168 316.490 C 816.661 315.369, 817.270 318.063, 817.124 338.421 C 817.053 348.364, 817.334 356.995, 817.747 357.600 C 819.325 359.907, 823.100 361, 829.490 361 L 836.112 361 838.306 356.250 C 840.327 351.874, 840.500 349.964, 840.500 332 L 840.500 312.500 843.302 308.837 C 844.844 306.822, 846.725 304.936, 847.482 304.645 C 851.419 303.135, 849.932 287.323, 845.678 285.456 C 843.648 284.565, 843.501 283.819, 843.513 274.500 C 843.520 269, 844.052 260.411, 844.694 255.412 C 845.982 245.400, 845.205 239.354, 842.364 237.277 C 840.549 235.949, 835.663 235.781, 830.500 236.868 M 650.751 243.711 C 647.155 244.606, 647.341 253.527, 651.081 259.614 C 653.159 262.996, 656.905 264, 667.440 264 C 670.278 264, 673.140 264.540, 673.800 265.200 C 675.479 266.879, 675.332 281.074, 673.587 285.730 C 672.810 287.803, 671.187 296.700, 669.982 305.500 C 668.776 314.300, 666.978 325.775, 665.986 331 C 664.971 336.344, 663.874 348.450, 663.479 358.673 L 662.776 376.845 667.109 379.055 C 669.587 380.320, 674.117 381.480, 677.694 381.768 C 683.726 382.252, 683.982 382.177, 684.949 379.635 C 686.169 376.424, 687.448 368.624, 689.560 351.500 C 690.442 344.350, 691.800 334.900, 692.578 330.500 C 694.779 318.040, 699 286.239, 699 282.113 C 699 280.071, 699.374 277.973, 699.831 277.450 C 700.289 276.928, 701.186 274.658, 701.824 272.407 L 702.986 268.315 707.743 269.098 C 710.359 269.528, 717.057 269.908, 722.628 269.940 C 730.694 269.988, 733.022 269.678, 734.068 268.418 C 735.651 266.511, 735.980 252.593, 734.478 251.084 C 733.511 250.111, 723.235 249.024, 681.500 245.480 C 657.944 243.479, 652.857 243.186, 650.751 243.711 M 872.272 257.510 C 865.062 261.160, 860.999 266.518, 860.349 273.233 C 859.899 277.877, 860.201 279.063, 862.902 283.258 C 867.776 290.827, 877.008 293.865, 875.376 287.363 C 875.006 285.888, 873.651 282.841, 872.364 280.591 C 869.075 274.841, 869.308 271.981, 873.283 269.275 C 876.177 267.304, 876.978 267.180, 880.276 268.193 C 882.721 268.943, 884 269.937, 884 271.086 C 884 274.355, 882.792 276, 880.393 276 C 878.755 276, 878 276.568, 878 277.800 C 878 280.750, 880.121 282, 885.127 282 C 889.366 282, 890.178 281.612, 892.989 278.250 C 895.684 275.025, 896.040 273.960, 895.533 270.645 C 894.260 262.328, 888.629 256.031, 881.826 255.318 C 878.509 254.969, 876.281 255.481, 872.272 257.510 M 739 283.933 C 734.817 285.207, 723.941 290.870, 719.731 293.966 C 714.919 297.505, 709.083 309.335, 705.858 322.088 C 703.607 330.992, 703.665 338.193, 706.102 352 C 707.192 358.178, 707.605 358.859, 714.447 365.750 L 721.645 373 730.294 373 C 737.250 373, 739.976 372.535, 744.221 370.625 C 752.841 366.746, 757.884 362.446, 760.564 356.690 C 764.310 348.644, 763.932 346.902, 757.515 342.642 C 754.499 340.639, 751.535 339, 750.929 339 C 750.323 339, 746.973 341.740, 743.486 345.089 C 736.826 351.484, 731.450 353.852, 728.621 351.637 C 725.732 349.374, 724.072 335.379, 725.366 324.208 C 726.165 317.317, 726.468 316.658, 730.881 312.208 C 733.449 309.619, 737.787 306.375, 740.520 305 C 743.253 303.625, 746.841 301.602, 748.495 300.503 C 750.148 299.405, 751.697 298.383, 751.938 298.232 C 752.179 298.081, 751.279 294.593, 749.938 290.482 C 747.609 283.340, 747.366 283.010, 744.500 283.089 C 742.850 283.135, 740.375 283.515, 739 283.933 M 880 298.536 C 878.625 299.301, 875.363 300.226, 872.752 300.592 C 864.628 301.730, 863.095 306.623, 861.037 338 C 859.427 362.562, 859.330 373.722, 860.715 375.111 C 861.383 375.781, 864.363 376.531, 867.337 376.778 C 872.460 377.203, 872.963 377.028, 876.937 373.438 C 879.243 371.355, 881.765 368.421, 882.542 366.919 C 884.228 363.659, 887.453 320.894, 886.759 310.998 C 886.507 307.414, 885.450 302.848, 884.401 300.821 C 882.582 297.305, 882.392 297.206, 880 298.536" stroke="none" fill="#453271" fill-rule="evenodd"/><path d="M 830.500 236.868 C 828.183 237.356, 826.964 238.581, 825.145 242.247 C 823.163 246.244, 822.649 249.384, 821.898 262.102 C 820.974 277.727, 819.402 290.043, 818.194 291.117 C 817.812 291.456, 815.252 292.479, 812.504 293.390 C 807.809 294.947, 807.431 294.942, 806.244 293.319 C 803.375 289.396, 803.117 285.193, 805.078 274.320 C 807.210 262.498, 807.602 248.047, 805.883 244.684 C 803.814 240.639, 801.146 239.254, 797.145 240.151 C 795.140 240.600, 792.375 241.198, 791 241.481 C 789.625 241.763, 787.498 242.783, 786.274 243.747 C 783.425 245.991, 782.429 252.726, 780.913 280 C 780.069 295.177, 779.397 300.928, 778.325 302.147 C 777.528 303.053, 774.819 304.312, 772.304 304.945 C 761.425 307.684, 757.371 311.913, 759.166 318.648 C 760.263 322.767, 766.238 328, 769.844 328 C 775.107 328, 776.447 330.008, 776.280 337.644 C 775.773 360.871, 775.801 368.134, 776.401 368.734 C 776.773 369.106, 779.909 369.590, 783.371 369.811 C 788.340 370.127, 790.529 369.771, 793.769 368.118 C 798.301 365.806, 797.757 367.536, 799.956 348.432 C 800.530 343.445, 801 337.505, 801 335.231 C 801 332.958, 801.484 328.842, 802.075 326.084 C 803.206 320.811, 806.179 317.985, 812.168 316.490 C 816.661 315.369, 817.270 318.063, 817.124 338.421 C 817.053 348.364, 817.334 356.995, 817.747 357.600 C 819.325 359.907, 823.100 361, 829.490 361 L 836.112 361 838.306 356.250 C 840.327 351.874, 840.500 349.964, 840.500 332 L 840.500 312.500 843.302 308.837 C 844.844 306.822, 846.725 304.936, 847.482 304.645 C 851.419 303.135, 849.932 287.323, 845.678 285.456 C 843.648 284.565, 843.501 283.819, 843.513 274.500 C 843.520 269, 844.052 260.411, 844.694 255.412 C 845.982 245.400, 845.205 239.354, 842.364 237.277 C 840.549 235.949, 835.663 235.781, 830.500 236.868 M 650.751 243.711 C 647.155 244.606, 647.341 253.527, 651.081 259.614 C 653.159 262.996, 656.905 264, 667.440 264 C 670.278 264, 673.140 264.540, 673.800 265.200 C 675.479 266.879, 675.332 281.074, 673.587 285.730 C 672.810 287.803, 671.187 296.700, 669.982 305.500 C 668.776 314.300, 666.978 325.775, 665.986 331 C 664.971 336.344, 663.874 348.450, 663.479 358.673 L 662.776 376.845 667.109 379.055 C 669.587 380.320, 674.117 381.480, 677.694 381.768 C 683.726 382.252, 683.982 382.177, 684.949 379.635 C 686.169 376.424, 687.448 368.624, 689.560 351.500 C 690.442 344.350, 691.800 334.900, 692.578 330.500 C 694.779 318.040, 699 286.239, 699 282.113 C 699 280.071, 699.374 277.973, 699.831 277.450 C 700.289 276.928, 701.186 274.658, 701.824 272.407 L 702.986 268.315 707.743 269.098 C 710.359 269.528, 717.057 269.908, 722.628 269.940 C 730.694 269.988, 733.022 269.678, 734.068 268.418 C 735.651 266.511, 735.980 252.593, 734.478 251.084 C 733.511 250.111, 723.235 249.024, 681.500 245.480 C 657.944 243.479, 652.857 243.186, 650.751 243.711 M 872.272 257.510 C 865.062 261.160, 860.999 266.518, 860.349 273.233 C 859.899 277.877, 860.201 279.063, 862.902 283.258 C 867.776 290.827, 877.008 293.865, 875.376 287.363 C 875.006 285.888, 873.651 282.841, 872.364 280.591 C 869.075 274.841, 869.308 271.981, 873.283 269.275 C 876.177 267.304, 876.978 267.180, 880.276 268.193 C 882.721 268.943, 884 269.937, 884 271.086 C 884 274.355, 882.792 276, 880.393 276 C 878.755 276, 878 276.568, 878 277.800 C 878 280.750, 880.121 282, 885.127 282 C 889.366 282, 890.178 281.612, 892.989 278.250 C 895.684 275.025, 896.040 273.960, 895.533 270.645 C 894.260 262.328, 888.629 256.031, 881.826 255.318 C 878.509 254.969, 876.281 255.481, 872.272 257.510 M 739 283.933 C 734.817 285.207, 723.941 290.870, 719.731 293.966 C 714.919 297.505, 709.083 309.335, 705.858 322.088 C 703.607 330.992, 703.665 338.193, 706.102 352 C 707.192 358.178, 707.605 358.859, 714.447 365.750 L 721.645 373 730.294 373 C 737.250 373, 739.976 372.535, 744.221 370.625 C 752.841 366.746, 757.884 362.446, 760.564 356.690 C 764.310 348.644, 763.932 346.902, 757.515 342.642 C 754.499 340.639, 751.535 339, 750.929 339 C 750.323 339, 746.973 341.740, 743.486 345.089 C 736.826 351.484, 731.450 353.852, 728.621 351.637 C 725.732 349.374, 724.072 335.379, 725.366 324.208 C 726.165 317.317, 726.468 316.658, 730.881 312.208 C 733.449 309.619, 737.787 306.375, 740.520 305 C 743.253 303.625, 746.841 301.602, 748.495 300.503 C 750.148 299.405, 751.697 298.383, 751.938 298.232 C 752.179 298.081, 751.279 294.593, 749.938 290.482 C 747.609 283.340, 747.366 283.010, 744.500 283.089 C 742.850 283.135, 740.375 283.515, 739 283.933 M 880 298.536 C 878.625 299.301, 875.363 300.226, 872.752 300.592 C 864.628 301.730, 863.095 306.623, 861.037 338 C 859.427 362.562, 859.330 373.722, 860.715 375.111 C 861.383 375.781, 864.363 376.531, 867.337 376.778 C 872.460 377.203, 872.963 377.028, 876.937 373.438 C 879.243 371.355, 881.765 368.421, 882.542 366.919 C 884.228 363.659, 887.453 320.894, 886.759 310.998 C 886.507 307.414, 885.450 302.848, 884.401 300.821 C 882.582 297.305, 882.392 297.206, 880 298.536" stroke="none" fill="#453271" fill-rule="evenodd"/><path d="M 830.500 236.868 C 828.183 237.356, 826.964 238.581, 825.145 242.247 C 823.163 246.244, 822.649 249.384, 821.898 262.102 C 820.974 277.727, 819.402 290.043, 818.194 291.117 C 817.812 291.456, 815.252 292.479, 812.504 293.390 C 807.809 294.947, 807.431 294.942, 806.244 293.319 C 803.375 289.396, 803.117 285.193, 805.078 274.320 C 807.210 262.498, 807.602 248.047, 805.883 244.684 C 803.814 240.639, 801.146 239.254, 797.145 240.151 C 795.140 240.600, 792.375 241.198, 791 241.481 C 789.625 241.763, 787.498 242.783, 786.274 243.747 C 783.425 245.991, 782.429 252.726, 780.913 280 C 780.069 295.177, 779.397 300.928, 778.325 302.147 C 777.528 303.053, 774.819 304.312, 772.304 304.945 C 761.425 307.684, 757.371 311.913, 759.166 318.648 C 760.263 322.767, 766.238 328, 769.844 328 C 775.107 328, 776.447 330.008, 776.280 337.644 C 775.773 360.871, 775.801 368.134, 776.401 368.734 C 776.773 369.106, 779.909 369.590, 783.371 369.811 C 788.340 370.127, 790.529 369.771, 793.769 368.118 C 798.301 365.806, 797.757 367.536, 799.956 348.432 C 800.530 343.445, 801 337.505, 801 335.231 C 801 332.958, 801.484 328.842, 802.075 326.084 C 803.206 320.811, 806.179 317.985, 812.168 316.490 C 816.661 315.369, 817.270 318.063, 817.124 338.421 C 817.053 348.364, 817.334 356.995, 817.747 357.600 C 819.325 359.907, 823.100 361, 829.490 361 L 836.112 361 838.306 356.250 C 840.327 351.874, 840.500 349.964, 840.500 332 L 840.500 312.500 843.302 308.837 C 844.844 306.822, 846.725 304.936, 847.482 304.645 C 851.419 303.135, 849.932 287.323, 845.678 285.456 C 843.648 284.565, 843.501 283.819, 843.513 274.500 C 843.520 269, 844.052 260.411, 844.694 255.412 C 845.982 245.400, 845.205 239.354, 842.364 237.277 C 840.549 235.949, 835.663 235.781, 830.500 236.868 M 650.751 243.711 C 647.155 244.606, 647.341 253.527, 651.081 259.614 C 653.159 262.996, 656.905 264, 667.440 264 C 670.278 264, 673.140 264.540, 673.800 265.200 C 675.479 266.879, 675.332 281.074, 673.587 285.730 C 672.810 287.803, 671.187 296.700, 669.982 305.500 C 668.776 314.300, 666.978 325.775, 665.986 331 C 664.971 336.344, 663.874 348.450, 663.479 358.673 L 662.776 376.845 667.109 379.055 C 669.587 380.320, 674.117 381.480, 677.694 381.768 C 683.726 382.252, 683.982 382.177, 684.949 379.635 C 686.169 376.424, 687.448 368.624, 689.560 351.500 C 690.442 344.350, 691.800 334.900, 692.578 330.500 C 694.779 318.040, 699 286.239, 699 282.113 C 699 280.071, 699.374 277.973, 699.831 277.450 C 700.289 276.928, 701.186 274.658, 701.824 272.407 L 702.986 268.315 707.743 269.098 C 710.359 269.528, 717.057 269.908, 722.628 269.940 C 730.694 269.988, 733.022 269.678, 734.068 268.418 C 735.651 266.511, 735.980 252.593, 734.478 251.084 C 733.511 250.111, 723.235 249.024, 681.500 245.480 C 657.944 243.479, 652.857 243.186, 650.751 243.711 M 872.272 257.510 C 865.062 261.160, 860.999 266.518, 860.349 273.233 C 859.899 277.877, 860.201 279.063, 862.902 283.258 C 867.776 290.827, 877.008 293.865, 875.376 287.363 C 875.006 285.888, 873.651 282.841, 872.364 280.591 C 869.075 274.841, 869.308 271.981, 873.283 269.275 C 876.177 267.304, 876.978 267.180, 880.276 268.193 C 882.721 268.943, 884 269.937, 884 271.086 C 884 274.355, 882.792 276, 880.393 276 C 878.755 276, 878 276.568, 878 277.800 C 878 280.750, 880.121 282, 885.127 282 C 889.366 282, 890.178 281.612, 892.989 278.250 C 895.684 275.025, 896.040 273.960, 895.533 270.645 C 894.260 262.328, 888.629 256.031, 881.826 255.318 C 878.509 254.969, 876.281 255.481, 872.272 257.510 M 739 283.933 C 734.817 285.207, 723.941 290.870, 719.731 293.966 C 714.919 297.505, 709.083 309.335, 705.858 322.088 C 703.607 330.992, 703.665 338.193, 706.102 352 C 707.192 358.178, 707.605 358.859, 714.447 365.750 L 721.645 373 730.294 373 C 737.250 373, 739.976 372.535, 744.221 370.625 C 752.841 366.746, 757.884 362.446, 760.564 356.690 C 764.310 348.644, 763.932 346.902, 757.515 342.642 C 754.499 340.639, 751.535 339, 750.929 339 C 750.323 339, 746.973 341.740, 743.486 345.089 C 736.826 351.484, 731.450 353.852, 728.621 351.637 C 725.732 349.374, 724.072 335.379, 725.366 324.208 C 726.165 317.317, 726.468 316.658, 730.881 312.208 C 733.449 309.619, 737.787 306.375, 740.520 305 C 743.253 303.625, 746.841 301.602, 748.495 300.503 C 750.148 299.405, 751.697 298.383, 751.938 298.232 C 752.179 298.081, 751.279 294.593, 749.938 290.482 C 747.609 283.340, 747.366 283.010, 744.500 283.089 C 742.850 283.135, 740.375 283.515, 739 283.933 M 880 298.536 C 878.625 299.301, 875.363 300.226, 872.752 300.592 C 864.628 301.730, 863.095 306.623, 861.037 338 C 859.427 362.562, 859.330 373.722, 860.715 375.111 C 861.383 375.781, 864.363 376.531, 867.337 376.778 C 872.460 377.203, 872.963 377.028, 876.937 373.438 C 879.243 371.355, 881.765 368.421, 882.542 366.919 C 884.228 363.659, 887.453 320.894, 886.759 310.998 C 886.507 307.414, 885.450 302.848, 884.401 300.821 C 882.582 297.305, 882.392 297.206, 880 298.536" stroke="none" fill="#453271" fill-rule="evenodd"/><path d="" stroke="none" fill="#000000" fill-rule="evenodd"/><path d="M 636.593 297.250 C 635.794 298.488, 634.872 302.875, 634.544 307 C 634.215 311.125, 633.417 318.468, 632.769 323.318 C 631.655 331.663, 631.385 332.323, 627.744 335.612 C 623.995 338.999, 623.740 339.072, 617.699 338.460 C 600.899 336.758, 589.069 333.229, 587.635 329.490 C 587.298 328.613, 587.310 322.551, 587.661 316.020 L 588.300 304.146 585.227 301.073 C 581.837 297.683, 578.443 297.188, 571.943 299.135 C 568.723 300.100, 567.844 301.017, 566.088 305.243 C 561.322 316.710, 560.812 335.084, 564.953 346.146 C 571.370 363.291, 582.130 372.263, 600.930 376.146 C 606.568 377.311, 608.201 377.217, 618.110 375.156 C 626.074 373.500, 630.654 371.929, 634.903 369.398 L 640.746 365.918 644.417 368.084 C 649.414 371.032, 656.451 370.339, 659.683 366.582 C 662.773 362.990, 664.505 356.316, 663.055 353.588 C 662.445 352.440, 661.532 349.250, 661.027 346.500 C 659.481 338.088, 658.198 332.633, 657.074 329.685 C 656.483 328.137, 655.962 324.312, 655.916 321.185 C 655.870 318.058, 655.083 311.900, 654.166 307.500 C 652.514 299.568, 652.462 299.481, 648.038 297.250 C 645.584 296.012, 642.332 295, 640.811 295 C 639.041 295, 637.523 295.809, 636.593 297.250 M 584.571 345.571 C 581.539 348.604, 583.734 354, 588 354 C 590.386 354, 593 351.386, 593 349 C 593 346.614, 590.386 344, 588 344 C 586.979 344, 585.436 344.707, 584.571 345.571 M 623.571 350.571 C 620.539 353.604, 622.734 359, 627 359 C 629.386 359, 632 356.386, 632 354 C 632 351.614, 629.386 349, 627 349 C 625.979 349, 624.436 349.707, 623.571 350.571 M 604 352 C 602.900 353.100, 602 354.900, 602 356 C 602 358.576, 605.424 362, 608 362 C 610.576 362, 614 358.576, 614 356 C 614 353.424, 610.576 350, 608 350 C 606.900 350, 605.100 350.900, 604 352" stroke="none" fill="#00b2e4" fill-rule="evenodd"/><path d="M 522.227 258.521 C 503.061 262.684, 485.129 280.947, 480.583 300.935 C 478.631 309.517, 478.584 325.461, 480.488 333.431 C 483.259 345.037, 488.739 353.590, 499.389 362.934 C 501.734 364.990, 503.458 365.435, 510.521 365.806 C 524.816 366.556, 535.407 361.094, 544.861 348.095 C 550.266 340.665, 552.646 334.303, 553.265 325.626 C 553.663 320.060, 553.511 319.578, 550.364 316.431 C 546.110 312.177, 540.230 308.752, 529.816 304.462 C 518.116 299.643, 516.771 299.786, 514.133 306.133 C 512.960 308.957, 512 312.053, 512 313.015 C 512 315.132, 517.046 320.295, 522.500 323.759 C 527.318 326.818, 527.965 327.698, 527.985 331.216 C 528.013 336.292, 525 340.844, 520.572 342.416 C 512.010 345.455, 511.509 345.385, 507.260 340.558 C 502.764 335.450, 500.474 328.683, 499.011 316.174 C 497.857 306.310, 498.373 304.936, 508.072 292.065 L 514.212 283.916 530.576 284.607 C 546.747 285.290, 546.982 285.270, 550.451 282.899 C 554.076 280.422, 556.888 275.186, 559.163 266.679 C 559.842 264.141, 560.103 261.770, 559.744 261.410 C 559.384 261.051, 556.042 259.911, 552.316 258.878 C 544.309 256.658, 531.507 256.506, 522.227 258.521 M 451.819 267.545 C 450.344 268.341, 448.863 269.857, 448.527 270.913 C 448.192 271.970, 447.076 273.905, 446.047 275.213 C 444.255 277.492, 443.893 277.551, 437.326 276.643 C 431.329 275.814, 429.915 275.948, 425.987 277.712 C 423.519 278.820, 419.192 281.624, 416.371 283.942 C 411.420 288.011, 409.798 290.736, 402.945 306.500 C 399.450 314.541, 398.940 339.453, 402.096 348 C 403.213 351.025, 404.374 354.502, 404.675 355.726 C 404.977 356.950, 407.188 359.763, 409.590 361.976 C 413.800 365.857, 414.198 366, 420.796 366 C 429.973 366, 436.608 363.863, 443.748 358.606 L 449.689 354.233 451.414 359.030 C 452.362 361.669, 454.448 365.891, 456.047 368.414 C 458.770 372.707, 459.232 373, 463.282 373 C 469.341 373, 477 368.162, 477 364.336 C 477 361.368, 473.237 347.101, 472.032 345.500 C 471.141 344.317, 467.477 329.062, 466.009 320.431 C 464.760 313.084, 466.023 299.091, 468.972 287.590 C 470.087 283.240, 471 278.205, 471 276.403 C 471 273.368, 470.537 272.904, 464.750 270.134 C 456.395 266.135, 454.962 265.848, 451.819 267.545 M 431.153 297.695 C 429.311 298.602, 427.562 300.054, 427.265 300.922 C 426.967 301.790, 425.489 305.200, 423.980 308.500 C 418.393 320.712, 417.963 327.755, 422.265 336.608 C 424.877 341.985, 426.831 342.209, 433.364 337.882 C 438.859 334.242, 440.510 330.937, 442.542 319.500 C 444.875 306.371, 444.564 302.939, 440.702 299.196 C 436.954 295.564, 435.835 295.388, 431.153 297.695" stroke="none" fill="#b152b1" fill-rule="evenodd"/><path d="" stroke="none" fill="#c44b9c" fill-rule="evenodd"/><path d="M 188.852 223.750 C 183.951 228.922, 182 232.046, 182 234.723 C 182 236.976, 181.861 237, 169 237 C 156.850 237, 156 236.875, 156 235.081 C 156 226.697, 142.753 220.722, 134.410 225.343 C 127.879 228.960, 126 234.064, 126 248.189 C 126 263.615, 125.476 263.217, 145.252 262.802 L 159.694 262.500 160.347 289.412 C 160.706 304.214, 161 327.222, 161 340.540 C 161 370.930, 161.250 371.707, 172.292 375.603 C 175.988 376.907, 176.655 376.857, 180.410 374.988 C 182.659 373.868, 186.282 371.421, 188.460 369.550 L 192.419 366.148 189.686 313.898 C 188.183 285.160, 187.301 261.320, 187.726 260.920 C 188.152 260.520, 193.531 260.030, 199.680 259.833 C 205.829 259.635, 211.154 259.179, 211.513 258.821 C 211.872 258.462, 213.183 254.868, 214.427 250.834 L 216.688 243.500 214.820 235.500 L 212.951 227.500 207.146 223.750 C 202.645 220.843, 200.336 220, 196.873 220 C 193.009 220, 191.926 220.507, 188.852 223.750 M 362.138 241.862 C 356.213 247.787, 350.945 260.792, 346.488 280.500 C 344.052 291.272, 339.525 305.330, 338.370 305.712 C 337.748 305.918, 336.977 304.830, 336.656 303.293 C 336.335 301.757, 335.330 296.900, 334.422 292.500 C 328.731 264.914, 325.161 255.864, 318.246 251.500 C 316.503 250.400, 315.024 248.825, 314.960 248 C 314.895 247.175, 314.397 247.717, 313.853 249.204 C 313.309 250.692, 311.985 252.187, 310.911 252.528 C 307.316 253.669, 303.912 262.792, 299.009 284.430 C 296.382 296.019, 292.865 310.450, 291.191 316.500 C 287.025 331.559, 283 351.908, 283 357.906 C 283 364.790, 284.279 367.553, 288.078 368.877 C 293.353 370.716, 295.314 370.215, 300.308 365.750 L 305.060 361.500 307.592 349 C 308.984 342.125, 310.997 333.066, 312.065 328.869 C 313.132 324.672, 314.292 318.497, 314.642 315.147 C 315.393 307.968, 317 307.935, 317 315.098 C 317 329.737, 320.643 350.475, 324.713 359.003 C 327.011 363.819, 328.026 364.940, 330.500 365.399 C 335.208 366.272, 341.951 365.227, 345.301 363.106 C 348.657 360.981, 349.542 358.554, 352.997 342 C 355.929 327.951, 361.616 305.051, 362.356 304.311 C 363.920 302.747, 365.076 306.996, 366.897 321 C 368.233 331.279, 372.958 360.351, 373.551 361.948 C 373.847 362.744, 374.492 367.654, 374.984 372.860 C 376.096 384.608, 377.528 386.537, 385.054 386.426 C 388.422 386.377, 390.938 385.692, 392.775 384.324 C 397.660 380.688, 397.728 378.734, 393.683 358.251 C 388.543 332.221, 385.265 310.470, 384.528 297.500 C 383.346 276.700, 380.035 251.803, 377.843 247.223 C 375.693 242.732, 370.466 238, 367.656 238 C 366.745 238, 364.262 239.738, 362.138 241.862 M 256.514 277.130 C 255.482 280.633, 254.528 283.654, 254.393 283.843 C 254.259 284.031, 251.752 283.517, 248.824 282.700 C 245.896 281.884, 240.990 280.948, 237.923 280.620 C 230.432 279.818, 224.146 282.951, 216.199 291.447 C 209.360 298.758, 204.403 309.305, 202.819 319.919 C 201.569 328.294, 202.612 346.802, 204.487 349.498 C 207.890 354.394, 213.779 359.776, 216.899 360.840 C 224.544 363.448, 234.607 361.283, 244 355.009 L 248.500 352.003 248.748 355.752 C 248.884 357.813, 249.776 362.062, 250.730 365.194 C 252.621 371.404, 253.449 371.963, 260.789 371.986 C 264.376 371.998, 265.732 371.387, 269.079 368.250 L 273.080 364.500 273.556 350.191 C 274 336.867, 276.881 315.204, 280.492 298.039 C 282.239 289.732, 282.416 282.037, 280.977 276.858 C 279.841 272.769, 279.286 272.567, 265.945 271.413 L 258.389 270.759 256.514 277.130 M 235.369 303.441 C 231.022 305.333, 226.261 315.556, 224.964 325.782 C 224.432 329.979, 224.252 334.220, 224.565 335.205 C 225.898 339.403, 233.527 338.273, 238.244 333.177 C 242.134 328.975, 246.982 317.315, 247.736 310.343 C 248.516 303.140, 243.059 300.094, 235.369 303.441" stroke="none" fill="#d32a87" fill-rule="evenodd"/><path d="" stroke="none" fill="#ec2b8a" fill-rule="evenodd"/><path d="" stroke="none" fill="#ec2b8a" fill-rule="evenodd"/><path d="" stroke="none" fill="#db328c" fill-rule="evenodd"/><path d="" stroke="none" fill="#35508c" fill-rule="evenodd"/></svg>