<?xml version="1.0" standalone="no"?>
<!DOCTYPE svg PUBLIC "-//W3C//DTD SVG 20010904//EN"
 "http://www.w3.org/TR/2001/REC-SVG-20010904/DTD/svg10.dtd">
<svg version="1.0" xmlns="http://www.w3.org/2000/svg"
 width="1355.000000pt" height="1363.000000pt" viewBox="0 0 1355.000000 1363.000000"
 preserveAspectRatio="xMidYMid meet">

<g transform="translate(0.000000,1363.000000) scale(0.100000,-0.100000)"
fill="#000000" stroke="none">
<path d="M5627 13603 c5 -16 8 -49 8 -75 0 -27 3 -48 6 -48 3 0 26 15 50 34
51 39 105 50 122 24 11 -16 7 -33 -26 -136 -6 -18 -21 -42 -34 -54 -21 -19
-28 -20 -77 -11 -51 9 -57 8 -85 -15 -17 -13 -31 -33 -31 -44 0 -22 30 -78 42
-78 4 0 8 -8 8 -18 0 -26 69 -92 120 -114 31 -14 85 -23 174 -30 l129 -10 56
-45 c31 -25 60 -53 64 -63 8 -16 11 -16 34 6 14 13 30 24 34 24 15 0 10 -52
-10 -109 -18 -50 -18 -56 -2 -80 57 -92 106 -127 218 -156 74 -19 107 -19 151
2 48 22 52 28 52 94 0 31 5 81 11 110 6 30 15 72 19 94 4 22 8 33 9 25 1 -8
13 23 27 70 14 47 30 90 35 95 18 17 37 -23 45 -93 12 -115 -44 -514 -79 -559
-15 -20 -23 -8 -37 57 -7 33 -16 58 -19 54 -3 -3 -8 -69 -11 -146 l-5 -141
-65 -22 c-124 -41 -213 -96 -287 -176 -29 -31 -53 -58 -53 -62 0 -3 -10 -27
-22 -54 -12 -26 -31 -75 -43 -108 -18 -49 -27 -62 -51 -69 -16 -4 -37 -12 -47
-17 -9 -5 -56 -18 -103 -29 -149 -35 -523 -165 -684 -238 -236 -108 -401 -201
-620 -351 -176 -120 -460 -344 -460 -361 0 -4 11 -11 24 -14 31 -8 109 -83
132 -127 9 -19 25 -63 35 -99 9 -36 18 -58 18 -49 1 9 17 70 37 135 60 200
144 297 283 325 116 24 216 -14 293 -111 77 -98 91 -154 120 -466 l22 -241 29
46 c115 182 293 296 455 290 61 -2 64 -1 82 28 27 44 78 79 137 93 43 10 65 9
135 -5 107 -21 237 -83 277 -132 l30 -36 43 37 c24 21 59 53 78 71 48 45 130
99 203 135 46 22 97 35 196 50 326 49 573 0 649 -130 23 -39 27 -56 27 -125
-1 -71 -5 -91 -43 -179 -23 -54 -42 -100 -42 -101 0 -2 23 4 51 12 78 23 265
5 319 -31 70 -46 117 -156 100 -231 -5 -22 -12 -88 -16 -146 l-7 -106 34 -12
c19 -7 84 -15 145 -18 130 -7 124 -13 124 123 0 118 19 172 86 238 65 66 106
80 215 74 60 -4 86 -10 123 -32 26 -15 48 -26 50 -24 3 5 49 230 54 264 l4 30
-102 12 c-120 14 -164 35 -202 95 -39 63 -52 120 -52 247 -1 133 12 165 86
216 39 27 48 29 157 32 74 2 186 -4 306 -18 105 -11 244 -23 310 -27 l120 -6
-50 39 c-27 22 -81 62 -120 88 -38 27 -77 56 -85 63 -26 23 -263 173 -302 190
-21 9 -38 20 -38 24 0 4 -42 29 -92 54 -51 26 -100 53 -109 61 -8 8 -18 14
-22 14 -3 0 -57 24 -119 54 -231 109 -594 238 -785 277 -35 7 -63 16 -63 20 0
4 -24 10 -52 14 -55 7 -98 28 -98 47 0 16 -63 141 -77 153 -6 6 -21 29 -33 51
-11 23 -30 50 -40 59 -11 10 -20 22 -20 27 0 20 -128 119 -186 143 -60 25 -61
24 -69 -75 -4 -49 -11 -90 -15 -90 -11 0 -20 122 -10 141 5 9 12 106 14 215 7
234 22 484 31 493 4 3 5 -40 2 -96 -2 -57 -1 -103 4 -103 4 0 31 -13 58 -30
68 -39 183 -74 219 -65 39 10 67 42 52 60 -7 8 -20 17 -31 20 -24 8 -27 65 -4
65 23 0 31 31 11 42 -18 10 -13 28 10 28 8 0 22 8 32 18 18 16 18 19 -11 76
-34 70 -57 140 -57 178 0 32 24 48 70 48 52 0 86 -25 115 -84 29 -60 31 -88
17 -214 -2 -9 -8 -8 -27 4 -36 23 -56 12 -53 -30 2 -22 7 -31 12 -25 26 25 38
-5 27 -66 -5 -25 -6 -45 -2 -45 19 1 32 20 29 46 -2 22 3 31 24 41 30 15 48
63 41 109 -3 22 -2 25 6 15 7 -11 11 1 16 45 7 56 10 61 58 99 68 54 83 61
147 68 102 12 156 34 216 90 60 56 60 57 48 159 -5 42 -2 64 10 89 21 41 20
50 -5 110 -20 45 -24 49 -56 49 l-35 0 26 -30 c56 -67 59 -171 6 -197 -18 -9
-20 -13 -7 -13 9 0 17 -7 17 -15 0 -25 -50 -7 -93 34 -46 43 -88 121 -96 176
-6 39 -7 40 -49 43 -41 3 -42 2 -37 -21 9 -34 -12 -106 -41 -144 -21 -28 -32
-33 -65 -33 -26 0 -50 7 -66 20 -32 25 -55 25 -78 0 -24 -26 -14 -72 36 -170
21 -43 39 -85 39 -94 0 -23 -28 -20 -80 9 -133 72 -153 80 -220 79 -42 -1 -84
-9 -118 -23 -80 -32 -88 -30 -101 30 -23 104 -127 204 -186 177 -14 -6 -25
-15 -25 -19 0 -4 -15 -16 -32 -27 -26 -17 -38 -36 -58 -93 -23 -67 -28 -73
-60 -82 -23 -6 -52 -5 -83 2 -79 18 -127 13 -195 -19 -34 -16 -87 -52 -116
-80 -29 -27 -60 -50 -69 -50 -9 0 -19 -5 -22 -10 -4 -6 -11 -8 -16 -4 -5 3 -6
10 -3 16 4 7 2 8 -5 4 -8 -5 -7 -13 4 -29 21 -31 19 -47 -8 -47 -31 0 -56 29
-64 73 -4 29 -1 40 24 66 17 17 37 31 46 31 23 0 43 52 51 130 9 90 -24 184
-90 258 l-48 52 -208 0 -208 0 7 -27z m460 -87 c60 -61 50 -132 -25 -176 -65
-39 -109 -15 -137 74 -31 101 -11 135 80 135 44 1 54 -3 82 -33z m1772 -202
c-14 -18 -24 -11 -15 11 3 9 11 13 16 10 8 -5 7 -11 -1 -21z m45 17 c3 -5 -1
-11 -9 -15 -9 -3 -15 0 -15 9 0 16 16 20 24 6z m-319 -30 c3 -5 1 -12 -5 -16
-5 -3 -10 1 -10 9 0 18 6 21 15 7z m-1819 -21 c50 -23 52 -29 24 -55 -14 -13
-29 -16 -56 -12 -78 13 -87 57 -16 86 2 0 23 -8 48 -19z m224 -15 c0 -8 -4
-15 -10 -15 -5 0 -10 7 -10 15 0 8 5 15 10 15 6 0 10 -7 10 -15z m-179 -125
c17 10 49 4 49 -9 0 -3 -15 -14 -32 -24 -31 -18 -33 -18 -45 -1 -17 23 -18 53
-1 36 7 -7 17 -8 29 -2z m587 -27 c6 -9 12 -24 12 -33 0 -24 -36 -116 -58
-147 -11 -15 -23 -47 -27 -70 -7 -44 -25 -59 -25 -22 0 12 -13 37 -30 56 -19
21 -30 45 -30 63 0 29 47 125 79 163 18 21 59 16 79 -10z m538 -238 c1 -115
-2 -248 -7 -295 -5 -47 -11 -107 -14 -133 -6 -61 -12 -70 -33 -49 -36 36 -47
124 -47 382 0 221 2 249 19 285 11 22 26 48 35 58 14 17 16 16 30 -10 13 -23
16 -69 17 -238z m230 240 c4 -8 0 -22 -7 -31 -10 -13 -14 -13 -26 -1 -16 16
-7 47 13 47 8 0 17 -7 20 -15z m-626 -55 c0 -5 -4 -10 -10 -10 -5 0 -10 5 -10
10 0 6 5 10 10 10 6 0 10 -4 10 -10z m375 -819 c4 -20 3 -31 -4 -31 -7 0 -14
14 -18 30 -3 17 -10 33 -14 36 -5 3 -9 12 -9 20 0 25 37 -21 45 -55z m35 -314
c0 -7 -6 -22 -14 -33 -20 -27 -43 -6 -27 25 13 23 41 29 41 8z m77 -164 c57
-123 42 -195 -62 -291 -68 -63 -119 -82 -224 -82 -122 0 -164 22 -209 111 -46
89 -53 168 -22 230 26 51 68 99 87 99 9 0 13 -16 13 -56 0 -112 39 -184 109
-204 65 -18 82 -13 128 37 35 37 49 64 73 142 17 52 30 104 30 116 1 19 2 18
22 -5 12 -14 36 -57 55 -97z"/>
<path d="M7497 13615 c-9 -23 9 -26 28 -5 17 19 17 20 -2 20 -12 0 -23 -7 -26
-15z"/>
<path d="M2401 10973 c-44 -21 -57 -34 -73 -71 -11 -25 -23 -62 -25 -82 l-5
-38 -97 -6 c-53 -3 -125 -7 -161 -8 l-65 -2 -12 43 c-17 61 -50 109 -86 128
-19 9 -64 18 -107 20 -69 3 -78 1 -114 -24 -74 -53 -116 -180 -116 -350 0 -83
2 -94 25 -121 14 -16 36 -32 50 -34 14 -3 105 -1 203 3 97 5 185 6 194 3 16
-5 17 -28 18 -250 0 -135 2 -249 5 -254 3 -4 7 -202 10 -440 4 -398 6 -435 24
-475 19 -44 45 -65 78 -65 10 0 31 -7 47 -15 42 -22 63 -19 153 25 101 49 120
76 104 148 -10 45 -19 179 -42 612 -6 113 -13 228 -14 255 -2 28 -10 99 -19
159 -18 121 -21 272 -7 308 8 22 17 25 118 35 59 6 120 9 135 6 34 -7 96 14
107 35 40 77 30 269 -18 362 -20 37 -44 65 -76 88 -42 28 -55 32 -114 32 -53
0 -79 -6 -120 -27z"/>
<path d="M4723 10779 c-51 -25 -97 -91 -119 -169 -9 -30 -24 -80 -34 -110 -10
-31 -26 -94 -35 -140 -9 -47 -34 -148 -55 -225 -21 -77 -46 -174 -56 -215 -13
-51 -24 -76 -35 -78 -14 -2 -19 12 -29 80 -11 78 -21 120 -71 306 -12 42 -32
124 -46 182 -40 163 -67 204 -146 217 -33 5 -41 1 -95 -51 -41 -39 -63 -69
-72 -98 -7 -24 -16 -54 -20 -68 -5 -14 -11 -52 -15 -85 -3 -33 -15 -91 -25
-130 -11 -38 -29 -117 -40 -175 -12 -58 -39 -177 -61 -265 -47 -193 -81 -369
-77 -399 1 -11 -1 -27 -5 -33 -5 -8 -3 -13 6 -13 8 0 18 7 21 16 3 9 11 12 18
8 10 -6 10 -4 0 8 -9 11 -10 18 -2 23 5 3 13 0 16 -9 3 -8 13 -17 22 -21 14
-5 15 -4 5 6 -18 18 -16 28 5 24 9 -2 21 -4 25 -4 5 -1 6 -5 3 -10 -3 -5 0
-11 7 -14 10 -4 13 2 9 19 -4 23 -12 28 -39 25 -7 -1 0 11 15 26 21 22 31 26
48 19 21 -10 30 -41 14 -51 -5 -3 -12 0 -16 6 -4 8 -3 9 4 5 7 -4 12 -2 12 3
0 11 -23 15 -32 6 -3 -4 -1 -17 6 -30 13 -28 46 -30 38 -3 -2 11 3 20 13 24
13 6 14 9 3 16 -9 7 -6 8 10 5 14 -3 22 -1 21 6 -3 27 2 39 15 34 10 -4 12 1
8 16 l-5 22 20 -20 c21 -21 21 -35 -1 -35 -8 0 -16 -8 -18 -18 -4 -12 1 -18
13 -18 15 0 16 3 6 15 -7 8 -7 12 -2 9 12 -8 24 -1 44 25 11 14 11 20 0 34 -8
9 -9 14 -3 10 17 -10 63 173 64 254 0 66 10 109 25 109 20 0 24 -22 30 -143 4
-62 11 -142 16 -179 9 -55 13 -66 26 -61 11 4 14 2 9 -5 -4 -7 -2 -12 3 -12 6
0 11 6 11 13 0 9 3 8 9 -2 5 -7 13 -11 19 -7 6 4 9 -4 7 -19 -1 -14 2 -28 7
-31 4 -3 6 -10 3 -15 -3 -5 0 -6 8 -3 7 2 14 11 14 18 0 8 -6 12 -13 9 -8 -3
-11 2 -7 15 5 22 41 19 50 -4 7 -20 23 -17 23 4 0 13 2 14 9 3 7 -11 9 -11 14
0 3 8 6 4 6 -8 1 -21 11 -28 33 -24 4 0 4 -7 1 -17 -6 -15 -5 -15 10 -3 15 12
17 12 12 -2 -4 -8 -1 -18 6 -23 8 -4 10 -3 5 5 -4 6 -2 19 5 27 11 14 14 14
23 2 6 -8 21 -20 34 -27 18 -10 22 -9 22 4 0 9 -5 26 -11 37 -8 15 -8 23 1 32
8 8 10 7 5 -6 -4 -10 -3 -18 3 -18 6 0 12 -10 14 -22 2 -13 9 -24 16 -24 6 -1
17 -2 23 -3 8 -1 7 -6 -1 -16 -9 -11 -10 -19 -3 -26 7 -7 15 -4 24 8 13 16 12
17 -3 4 -10 -7 -18 -10 -18 -5 1 14 30 49 38 46 7 -3 20 54 47 198 37 204 80
343 106 348 10 2 18 -16 27 -62 6 -36 12 -77 12 -91 0 -15 9 -68 20 -118 10
-51 29 -159 40 -242 12 -82 30 -186 41 -230 10 -45 19 -89 19 -99 0 -13 5 -16
18 -12 15 5 15 5 -1 -8 -15 -12 -17 -18 -7 -35 6 -12 8 -27 4 -33 -4 -6 -3 -8
3 -5 6 4 14 0 17 -9 4 -9 2 -13 -5 -8 -8 4 -9 -4 -3 -27 4 -19 7 -42 6 -51 0
-10 3 -18 9 -18 5 0 9 -5 9 -11 0 -5 -5 -7 -11 -3 -6 3 -3 -8 5 -25 16 -30 18
-31 85 -31 114 0 208 62 181 120 -7 16 -91 384 -115 505 -40 206 -64 384 -85
645 -38 463 -49 550 -74 603 -27 59 -67 104 -103 118 -34 13 -42 12 -90 -12z
m-315 -1330 c12 1 22 -3 22 -9 0 -7 -8 -9 -21 -5 -16 6 -20 4 -13 -6 6 -12 5
-12 -9 0 -15 12 -21 9 -19 -10 1 -3 -6 -6 -14 -6 -7 0 -14 6 -14 14 0 7 6 12
13 11 6 -2 11 3 9 10 -2 9 2 11 10 6 7 -5 23 -7 36 -5z m36 -41 c-3 -4 -11 -5
-19 -1 -21 7 -19 12 4 10 11 0 18 -5 15 -9z m121 2 c3 -5 1 -10 -4 -10 -6 0
-11 5 -11 10 0 6 2 10 4 10 3 0 8 -4 11 -10z m-810 -10 c-3 -5 -11 -10 -16
-10 -6 0 -7 5 -4 10 3 6 11 10 16 10 6 0 7 -4 4 -10z m715 -21 c0 -5 -4 -9
-10 -9 -5 0 -10 7 -10 16 0 8 5 12 10 9 6 -3 10 -10 10 -16z m459 -373 c9 -11
9 -16 0 -22 -7 -4 -9 -3 -5 4 3 6 -2 15 -11 21 -10 6 -13 11 -7 11 6 0 17 -6
23 -14z m36 -86 c-3 -5 -12 -10 -18 -10 -7 0 -6 4 3 10 19 12 23 12 15 0z m-5
-74 c0 -3 -4 -8 -10 -11 -5 -3 -10 -1 -10 4 0 6 5 11 10 11 6 0 10 -2 10 -4z"/>
<path d="M5867 10409 c-8 -13 -23 -50 -33 -83 -10 -32 -24 -60 -31 -63 -7 -3
-37 5 -68 16 -121 46 -221 17 -332 -96 -45 -46 -74 -87 -103 -149 -64 -134
-83 -229 -88 -436 -4 -169 -3 -180 23 -270 39 -134 69 -183 129 -213 56 -28
102 -31 130 -10 23 17 37 11 29 -13 -3 -9 -3 -14 1 -10 4 3 9 14 10 23 1 9 9
21 17 26 10 8 8 9 -8 4 -31 -9 -48 2 -32 21 6 8 9 26 6 41 -5 26 -4 26 9 9 7
-10 11 -22 9 -27 -3 -4 3 -6 12 -4 10 2 23 4 28 5 6 1 -1 5 -13 11 -13 5 -22
15 -20 21 6 17 34 17 30 0 -1 -8 2 -10 8 -7 8 5 7 13 -2 28 -8 12 -13 28 -12
35 1 6 2 18 3 25 1 9 4 8 10 -2 5 -8 7 -20 4 -27 -3 -8 2 -11 14 -10 12 2 18
13 20 32 1 20 -1 24 -6 15 -5 -8 -7 -21 -3 -30 3 -9 2 -13 -2 -9 -25 22 -6 73
23 60 24 -12 44 -9 48 8 4 13 3 13 -6 0 -9 -13 -11 -13 -11 3 0 9 -5 17 -11
17 -5 0 -8 4 -5 9 4 5 0 12 -6 14 -10 4 -10 6 0 6 7 1 10 6 6 13 -4 7 -3 8 5
4 6 -4 9 -11 6 -16 -3 -5 -1 -12 5 -15 6 -4 10 -3 9 2 -5 28 2 42 19 36 12 -4
14 -3 6 6 -8 9 -21 8 -53 -4 -24 -8 -51 -15 -60 -15 -25 0 -74 59 -100 119
-20 48 -23 67 -19 150 4 89 7 103 50 192 58 121 94 163 152 178 97 24 131 -22
130 -174 0 -55 -6 -116 -12 -135 -7 -19 -13 -52 -14 -72 -2 -21 -6 -38 -10
-38 -3 0 -5 -8 -4 -17 2 -10 -3 -24 -11 -32 -8 -7 -12 -20 -9 -28 3 -8 2 -12
-3 -9 -5 3 -12 -1 -15 -10 -9 -23 -8 -23 18 -11 13 6 21 17 19 24 -3 7 0 13 7
13 6 0 8 5 4 13 -6 8 -3 8 9 -1 22 -18 40 -5 33 23 -4 17 -1 24 14 28 14 4 20
0 21 -11 0 -13 2 -13 8 3 5 11 6 26 3 34 -3 7 1 17 9 22 11 7 11 9 1 9 -7 0
-10 5 -7 10 9 15 38 12 29 -2 -5 -10 -4 -10 6 -1 13 12 20 32 23 64 1 8 10 16
22 17 14 1 16 -1 6 -7 -9 -6 -6 -8 11 -8 14 0 25 5 25 13 0 7 -4 11 -9 8 -4
-3 -8 0 -8 5 0 6 6 11 13 11 8 0 7 3 -3 10 -11 7 -17 5 -22 -8 -5 -14 -7 -13
-7 5 -1 16 -6 21 -18 17 -10 -2 -8 1 4 7 18 9 27 9 47 -5 34 -22 57 -21 26 1
-14 10 -28 17 -32 15 -5 -1 -8 4 -8 11 0 7 8 13 19 13 10 0 17 -5 15 -11 -6
-15 34 -17 43 -2 11 18 12 38 2 31 -5 -3 -7 -10 -4 -15 3 -5 -1 -6 -10 -3 -11
5 -13 10 -5 19 8 10 6 16 -7 24 -17 11 -17 11 1 9 10 -2 21 3 24 11 3 10 0 12
-12 8 -10 -4 -16 -1 -16 7 0 9 10 12 31 10 27 -3 29 -2 15 12 -20 19 -21 31
-2 15 11 -9 15 -6 18 13 3 16 1 23 -5 19 -6 -3 -3 4 6 16 8 13 13 30 10 39 -4
10 -2 13 5 8 13 -8 28 55 19 79 -4 8 1 19 11 24 15 9 15 13 4 32 -12 19 -12
21 1 16 12 -5 17 4 22 36 4 24 5 58 3 77 -3 32 -8 37 -78 72 -45 22 -98 39
-132 43 -52 7 -57 5 -71 -16z m203 -383 c0 -2 -8 -10 -17 -17 -16 -13 -17 -12
-4 4 13 16 21 21 21 13z m-140 -256 c0 -5 -8 -10 -17 -10 -15 0 -16 2 -3 10
19 12 20 12 20 0z m-39 -48 c-11 -4 -11 -6 0 -13 9 -6 10 -9 2 -9 -13 0 -26
17 -29 37 -2 10 3 10 19 1 16 -8 18 -13 8 -16z m-59 -54 c-8 -8 -9 -4 -5 13 4
13 8 18 11 10 2 -7 -1 -18 -6 -23z m8 -38 c0 -4 -10 -6 -22 -3 -19 4 -20 3 -8
-6 13 -9 13 -11 -2 -11 -10 0 -18 6 -18 14 0 8 8 16 18 19 20 4 32 -1 32 -13z
m-42 -65 c-3 -3 -9 2 -12 12 -6 14 -5 15 5 6 7 -7 10 -15 7 -18z m-157 -232
c13 -16 12 -17 -3 -4 -10 7 -18 15 -18 17 0 8 8 3 21 -13z"/>
<path d="M3330 10315 c-21 -11 -27 -25 -35 -82 -11 -78 -12 -78 -105 -44 -42
15 -80 20 -156 21 l-102 0 -59 -40 c-171 -114 -247 -263 -298 -587 -9 -59 22
-236 55 -309 16 -33 44 -74 64 -92 39 -34 130 -66 187 -65 64 1 167 43 237 96
92 69 98 68 93 -18 -9 -145 -6 -162 29 -180 35 -18 44 -19 34 -3 -5 7 -3 8 5
3 13 -7 48 32 43 48 -1 5 2 6 7 3 5 -4 12 2 14 11 4 16 5 16 6 -1 0 -10 -10
-29 -24 -42 -30 -27 -32 -40 -6 -40 12 0 17 6 13 18 -6 26 13 22 27 -4 l11
-23 -6 24 c-5 20 -3 23 10 18 11 -5 15 -3 10 5 -4 6 1 17 11 25 14 10 15 13 4
13 -8 0 -15 9 -16 21 -2 20 -1 20 18 4 17 -16 21 -13 18 11 0 4 5 10 11 14 9
5 9 9 1 14 -6 4 -11 2 -11 -3 0 -6 -10 -11 -22 -11 -22 0 -22 0 -2 14 11 8 29
14 39 13 11 -1 20 3 20 9 0 7 11 20 24 31 21 18 22 20 7 35 -13 14 -14 17 -1
22 10 4 15 -1 15 -14 0 -11 5 -20 10 -20 6 0 10 23 9 53 0 28 9 137 20 242 20
177 30 239 67 420 21 106 46 316 40 341 -7 28 -41 40 -145 53 -109 14 -140 13
-171 -4z m-171 -385 c33 -17 44 -61 31 -131 -18 -99 -47 -176 -95 -249 -34
-54 -53 -72 -96 -94 -60 -30 -95 -33 -127 -10 -20 13 -22 24 -22 93 0 62 6 95
30 162 39 108 87 188 129 216 36 25 116 32 150 13z m274 -756 c-26 -20 -35
-17 -16 5 9 11 21 18 25 15 5 -3 1 -12 -9 -20z m-66 -121 c-3 -10 -5 -4 -5 12
0 17 2 24 5 18 2 -7 2 -21 0 -30z"/>
<path d="M10024 10195 c4 -11 13 -37 19 -58 8 -24 17 -36 27 -34 22 4 13 36
-23 77 -19 21 -28 27 -23 15z"/>
<path d="M7237 10006 l-39 -12 28 -13 c25 -11 30 -10 41 5 11 16 18 36 11 33
-2 -1 -20 -6 -41 -13z"/>
<path d="M6041 9888 c-13 -20 -12 -22 1 -11 8 7 18 10 22 6 4 -4 4 0 0 10 -8
21 -6 21 -23 -5z"/>
<path d="M9755 9755 l-30 -25 44 0 c35 0 42 3 37 16 -3 9 -6 20 -6 25 0 15
-13 10 -45 -16z"/>
<path d="M5940 9709 c0 -5 -6 -7 -12 -3 -10 5 -10 4 -1 -6 6 -7 9 -20 6 -29
-4 -9 -3 -13 1 -10 9 8 18 59 11 59 -3 0 -5 -5 -5 -11z"/>
<path d="M9724 9670 c-13 -5 -24 -21 -28 -40 -13 -66 -9 -69 36 -28 24 22 55
42 70 45 36 7 36 23 1 24 -16 0 -35 2 -43 3 -8 2 -24 0 -36 -4z"/>
<path d="M5735 9490 c3 -5 8 -10 11 -10 2 0 4 5 4 10 0 6 -5 10 -11 10 -5 0
-7 -4 -4 -10z"/>
<path d="M5685 9458 c-17 -16 -17 -20 -5 -28 22 -14 27 -12 33 9 8 30 -6 40
-28 19z m15 -18 c0 -5 -2 -10 -4 -10 -3 0 -8 5 -11 10 -3 6 -1 10 4 10 6 0 11
-4 11 -10z"/>
<path d="M5726 9455 c-9 -26 -7 -32 5 -12 6 10 9 21 6 23 -2 3 -7 -2 -11 -11z"/>
<path d="M4180 9435 c0 -8 -5 -15 -11 -15 -5 0 -7 5 -3 12 4 7 3 8 -5 4 -14
-9 -7 -22 17 -28 15 -4 18 -1 14 18 -5 27 -12 32 -12 9z"/>
<path d="M3809 9403 c-13 -15 -12 -15 9 -4 23 12 28 21 13 21 -5 0 -15 -7 -22
-17z"/>
<path d="M3907 9376 c-4 -10 1 -12 14 -9 23 6 24 9 5 16 -8 3 -17 0 -19 -7z"/>
<path d="M4296 9381 c-4 -5 3 -7 14 -4 23 6 26 13 6 13 -8 0 -17 -4 -20 -9z"/>
<path d="M6394 9347 c-11 -6 -22 -15 -25 -20 -4 -5 -23 -11 -42 -13 -20 -2
-46 -14 -62 -29 -16 -14 -33 -24 -39 -23 -14 2 -76 -34 -76 -45 0 -4 -16 -23
-36 -41 -47 -45 -49 -47 -73 -73 -14 -15 -33 -23 -53 -23 -54 0 -98 -21 -98
-46 0 -25 -17 -76 -28 -84 -16 -11 -42 -61 -42 -79 0 -11 -14 -37 -32 -58 -18
-21 -26 -32 -18 -25 8 6 18 12 22 12 4 0 8 -46 8 -102 0 -101 13 -187 52 -343
11 -44 22 -123 25 -175 6 -91 7 -94 20 -62 22 54 60 34 85 -45 7 -24 16 -43
19 -43 4 0 9 26 12 58 6 63 -20 221 -39 237 -17 14 -14 277 4 282 17 6 15 43
-2 43 -8 0 -16 5 -18 12 -3 8 -11 9 -24 3 -18 -8 -18 -9 4 -12 25 -5 28 -13
10 -31 -17 -17 -26 -15 -33 9 -6 18 -13 20 -41 16 -19 -3 -32 -2 -29 3 3 5 0
28 -5 52 -24 93 -24 89 -1 95 18 4 21 11 17 29 -3 12 -2 26 4 29 5 3 10 2 10
-4 0 -6 9 -15 21 -21 20 -11 20 -11 4 20 -22 44 -17 75 14 75 14 0 26 6 29 13
3 10 7 10 20 0 13 -11 15 -10 10 10 -4 15 -2 22 9 22 10 0 13 6 9 16 -18 47
-18 64 0 70 42 14 103 46 114 59 9 11 17 12 30 5 15 -8 22 -3 41 28 13 20 23
48 24 62 0 18 5 25 20 25 13 0 19 -5 16 -15 -7 -30 -6 -43 6 -47 6 -2 13 6 15
19 2 15 11 24 25 26 13 2 30 17 40 33 10 16 21 29 25 29 12 0 10 -14 -7 -36
-20 -26 -19 -36 3 -30 19 6 44 -14 55 -46 4 -12 1 -18 -8 -18 -8 0 -19 -9 -25
-20 -8 -14 -17 -19 -33 -15 -17 4 -26 -1 -39 -25 -9 -16 -22 -30 -28 -30 -14
0 -13 13 5 36 20 27 18 36 -5 22 -17 -11 -22 -10 -30 2 -8 13 -11 12 -24 -5
-11 -14 -14 -32 -10 -62 6 -39 4 -43 -14 -43 -39 0 -72 -22 -72 -48 0 -17 -4
-22 -14 -19 -10 4 -17 -4 -21 -26 -4 -18 -17 -42 -28 -55 -18 -20 -19 -24 -7
-32 8 -6 21 -7 29 -5 8 3 17 2 20 -3 11 -16 110 -21 122 -6 13 16 49 19 49 5
0 -6 -5 -13 -10 -16 -6 -4 -8 -10 -5 -15 5 -9 89 -5 105 5 6 4 20 -1 30 -10
18 -16 20 -16 26 -1 3 9 15 16 25 16 22 0 24 -10 7 -29 -11 -11 -10 -13 5 -7
11 3 39 -1 64 -9 25 -9 54 -13 64 -10 12 4 21 1 25 -9 3 -9 15 -16 25 -16 11
0 22 -7 25 -15 4 -8 16 -15 28 -15 33 0 130 -38 143 -57 10 -13 10 -20 -2 -33
-20 -22 -19 -30 5 -30 13 0 20 -7 20 -18 0 -10 5 -23 12 -30 9 -9 8 -21 -1
-52 -11 -36 -23 -45 -53 -42 -13 2 -30 -28 -24 -44 6 -16 8 -16 25 0 10 9 25
14 34 10 8 -3 27 2 40 11 18 12 30 14 44 6 10 -5 26 -12 36 -15 21 -7 23 -26
2 -26 -8 0 -15 -7 -15 -15 0 -8 -3 -15 -7 -16 -48 -7 -93 -6 -114 2 -19 7 -38
6 -70 -5 -24 -9 -52 -16 -62 -16 -10 0 -20 -7 -23 -15 -4 -8 -12 -15 -19 -15
-24 0 -25 -17 -5 -42 20 -27 18 -40 -6 -31 -18 7 -18 -8 1 -43 18 -35 19 -70
4 -129 -10 -39 -9 -49 10 -80 23 -40 26 -57 12 -83 -5 -9 -12 -25 -15 -34 -3
-10 -15 -18 -26 -18 -11 0 -28 -8 -39 -19 -12 -12 -28 -17 -44 -14 -13 3 -28
0 -32 -6 -10 -17 40 -78 70 -85 17 -4 25 -13 24 -24 -5 -37 11 -52 58 -52 31
0 43 -4 40 -12 -2 -8 -24 -13 -58 -13 -40 0 -69 -7 -108 -27 -29 -16 -59 -28
-67 -28 -8 0 -14 -7 -14 -15 0 -8 -4 -15 -10 -15 -15 0 -12 -37 4 -43 8 -3 37
3 65 14 29 11 74 19 104 18 55 -1 119 -19 124 -35 2 -6 -24 -18 -56 -28 -33
-10 -65 -24 -71 -31 -6 -7 -29 -16 -51 -20 -21 -4 -39 -11 -39 -16 0 -6 -9
-19 -20 -31 -17 -18 -20 -19 -26 -5 -3 9 -2 21 2 28 4 8 3 9 -4 5 -6 -4 -22 0
-34 8 -21 13 -25 13 -45 -3 -19 -16 -20 -20 -6 -33 8 -9 11 -18 6 -21 -12 -8
-53 20 -53 36 0 7 -12 18 -27 25 -25 11 -30 10 -46 -10 l-17 -23 -34 38 c-19
21 -37 50 -41 65 -3 15 -15 36 -25 47 -10 11 -23 39 -29 63 -11 40 -20 50 -34
36 -3 -4 0 -13 8 -21 8 -8 15 -27 15 -43 0 -16 11 -55 25 -86 14 -31 25 -63
25 -70 0 -8 4 -14 9 -14 5 0 7 -8 4 -19 -2 -10 5 -36 16 -57 12 -21 21 -43 21
-49 0 -20 22 -87 26 -82 3 3 -2 29 -10 58 -21 69 -21 86 -1 69 8 -7 15 -18 15
-24 0 -6 9 -17 20 -24 11 -7 20 -16 20 -21 0 -5 14 -23 30 -39 17 -17 30 -37
30 -44 0 -14 14 -27 108 -99 29 -22 57 -50 61 -62 5 -12 23 -34 40 -50 17 -15
31 -33 31 -41 0 -7 14 -16 30 -19 19 -4 30 -13 30 -23 0 -10 5 -14 15 -10 9 3
40 -11 73 -33 88 -60 167 -82 307 -88 94 -4 133 -2 180 11 42 12 102 17 196
18 135 1 136 1 195 -32 66 -37 98 -36 134 2 15 16 20 35 20 75 0 68 17 100 78
152 44 36 56 41 101 41 27 0 72 7 98 17 67 23 130 20 226 -12 73 -24 90 -25
156 -18 l75 8 -71 37 c-114 60 -233 88 -413 98 -304 18 -388 40 -543 143 -42
29 -81 52 -85 52 -20 1 -62 40 -77 71 -13 28 -15 51 -10 118 5 57 3 86 -4 90
-16 10 -14 66 3 99 13 23 13 27 0 27 -9 0 -14 10 -14 29 0 16 -6 31 -15 35
-19 7 -20 39 -13 324 2 78 7 105 18 112 25 16 33 11 26 -15 -4 -14 -3 -25 2
-25 4 0 7 73 6 163 -1 89 2 203 7 252 5 50 10 116 12 147 1 32 6 58 11 58 4 0
5 8 1 18 -4 9 -9 26 -10 37 -2 11 -4 22 -6 25 -1 3 -3 10 -4 15 -4 30 -20 61
-35 72 -15 11 -16 19 -8 53 7 26 16 40 27 40 10 0 12 -3 5 -8 -14 -8 -2 -46
18 -58 10 -6 10 -4 -1 9 -14 18 -8 52 8 42 12 -7 8 -43 -8 -74 -10 -17 -10
-26 -1 -35 8 -8 10 -7 5 5 -4 10 0 19 11 23 12 4 15 2 11 -9 -4 -8 -2 -17 4
-20 5 -4 8 -14 7 -23 -2 -9 2 -16 8 -15 6 1 9 -10 6 -29 -3 -19 0 -33 9 -39 7
-4 10 -11 6 -15 -10 -10 -38 16 -30 29 3 6 1 7 -6 3 -8 -6 -9 -12 -2 -20 7 -9
7 -16 -1 -24 -6 -6 -9 -15 -5 -19 4 -4 13 -1 19 5 9 9 17 7 35 -10 13 -12 23
-26 23 -32 -1 -6 -9 -1 -20 12 -20 24 -40 22 -40 -4 0 -11 6 -13 20 -9 11 4
20 2 20 -4 0 -6 -4 -11 -10 -11 -5 0 -10 -7 -10 -16 0 -9 -5 -12 -12 -8 -7 4
-8 3 -4 -4 4 -7 15 -12 25 -12 10 0 26 -9 35 -19 17 -19 17 -19 -3 -14 -12 3
-21 1 -21 -6 0 -6 5 -11 11 -11 8 0 8 -4 0 -14 -9 -10 -7 -17 6 -27 11 -9 14
-10 9 -1 -4 6 -3 12 3 12 16 0 24 -22 11 -30 -7 -4 -10 -14 -8 -21 3 -8 1 -24
-3 -36 -7 -20 -2 -25 55 -53 35 -17 69 -33 77 -34 8 -1 28 -8 44 -16 62 -26
71 -29 128 -40 31 -6 57 -16 57 -21 0 -6 4 -8 9 -4 5 3 27 0 48 -8 41 -14 148
-3 138 14 -3 5 9 7 26 5 29 -3 64 8 79 25 3 3 21 11 40 18 19 7 45 18 57 23
12 6 32 8 45 5 21 -6 24 -3 24 16 -1 18 4 22 27 20 21 -1 27 3 27 18 0 14 7
19 26 19 14 0 23 -4 19 -10 -3 -5 -1 -10 5 -10 7 0 9 8 4 22 -6 20 -5 21 8 10
9 -7 22 -10 29 -8 8 2 26 7 41 10 15 3 34 13 42 22 10 10 38 17 77 19 53 2 62
0 66 -16 6 -23 21 -25 29 -4 4 8 11 15 16 15 6 0 8 -7 4 -15 -3 -10 1 -15 13
-15 10 0 21 -9 24 -20 3 -11 13 -22 24 -25 42 -13 102 -48 108 -63 5 -13 8
-14 14 -3 11 17 31 6 31 -17 0 -9 15 -26 33 -37 72 -44 75 -45 73 -32 0 7 4
13 9 14 6 2 10 -10 10 -25 0 -15 5 -27 10 -27 18 -1 40 -20 41 -36 1 -13 -7
-15 -45 -11 -25 3 -49 10 -53 16 -5 7 -8 6 -8 -3 0 -12 -35 -13 -217 -7 -509
16 -947 3 -1088 -31 -11 -3 -30 -5 -42 -4 -12 0 -25 -4 -28 -9 -3 -6 -15 -10
-26 -10 -18 0 -28 -19 -11 -21 4 0 16 -2 27 -4 11 -2 52 -5 92 -6 39 -1 89 -5
110 -9 31 -5 22 -8 -58 -14 -106 -9 -154 -25 -79 -27 25 0 54 -2 65 -4 11 -1
65 -6 120 -9 120 -7 239 -17 243 -21 2 -1 -4 -9 -12 -18 -13 -13 -7 -14 52
-13 37 2 74 -1 83 -5 8 -4 21 -4 29 1 9 6 17 5 21 -2 6 -9 12 -8 23 1 11 9 20
10 35 1 19 -9 23 -7 32 17 10 25 12 26 23 11 9 -12 16 -14 23 -7 8 8 17 8 31
0 24 -13 35 -14 28 -3 -3 4 12 8 32 9 20 0 48 3 62 7 48 12 117 15 321 16 183
1 211 -1 260 -19 63 -24 129 -84 158 -144 34 -69 39 -150 40 -600 1 -531 7
-678 28 -694 11 -8 18 -9 27 -1 13 13 16 68 3 68 -5 0 -5 6 2 13 7 9 11 114
11 323 1 487 0 604 -10 762 -11 188 -31 239 -132 345 -21 22 -38 41 -38 43 0
8 76 -39 101 -62 14 -13 30 -24 37 -24 15 0 34 -35 24 -45 -4 -4 2 -3 14 3 29
15 64 4 64 -20 0 -10 14 -32 30 -48 17 -17 27 -30 23 -30 -4 0 1 -7 12 -16 11
-8 20 -20 20 -26 0 -6 16 -15 35 -22 31 -10 57 -41 73 -89 1 -5 11 -5 21 -1
15 6 17 14 12 48 l-6 41 24 -26 c49 -55 41 -127 -54 -524 -21 -88 -55 -234
-75 -325 -43 -198 -41 -221 34 -368 64 -125 271 -551 271 -558 0 -18 -24 17
-61 91 -23 47 -45 85 -49 85 -3 0 -12 17 -19 38 -14 37 -91 199 -114 238 -7
11 -25 50 -42 87 -29 66 -55 93 -55 58 0 -10 9 -26 20 -36 11 -10 20 -31 20
-47 0 -15 4 -28 9 -28 5 0 11 -13 14 -29 4 -16 15 -38 25 -48 11 -10 22 -34
26 -55 4 -20 14 -39 22 -42 10 -4 14 -14 11 -25 -3 -14 -1 -18 9 -14 12 4 12
0 5 -21 -8 -20 -7 -27 7 -35 15 -9 15 -11 -3 -12 -16 -1 -15 -2 5 -8 19 -5 26
-14 28 -40 2 -18 12 -43 23 -55 13 -13 18 -29 14 -43 -4 -17 -1 -23 10 -23 14
0 14 -3 0 -30 -13 -26 -13 -29 0 -24 8 3 12 10 9 15 -3 5 2 9 11 9 21 0 31
-30 14 -41 -11 -7 -9 -10 9 -15 26 -7 24 -31 -2 -26 -9 2 -16 -2 -16 -8 0 -5
0 -12 0 -15 0 -3 1 -4 3 -3 8 5 47 -25 47 -38 0 -8 -5 -12 -10 -9 -6 4 -7 11
-4 17 4 6 2 8 -4 5 -14 -10 -9 -32 13 -57 10 -11 13 -20 7 -20 -7 0 -12 -4
-12 -10 0 -5 9 -10 19 -10 21 0 37 -16 23 -22 -5 -1 -12 -15 -16 -30 -5 -21
-2 -30 14 -38 11 -6 20 -17 20 -25 0 -8 5 -15 10 -15 6 0 10 -9 10 -20 0 -11
-5 -20 -11 -20 -5 0 -8 -4 -5 -9 4 -5 0 -11 -6 -14 -10 -3 -9 -9 3 -23 18 -21
10 -64 -12 -64 -7 0 -9 -10 -4 -27 8 -34 25 -54 25 -31 0 9 -4 19 -10 23 -16
10 1 35 24 35 15 0 17 -3 8 -9 -17 -10 -11 -47 7 -43 7 1 19 -2 27 -9 11 -9 9
-17 -11 -49 -23 -37 -24 -39 -5 -52 14 -9 17 -20 13 -40 -3 -15 -9 -25 -14
-22 -5 3 -9 0 -9 -5 0 -6 5 -11 10 -11 6 0 10 -7 10 -15 0 -8 -6 -15 -14 -15
-8 0 -17 -4 -20 -8 -3 -5 9 -6 25 -4 17 2 36 13 42 23 10 17 13 17 29 2 20
-18 68 -10 68 11 0 8 9 16 20 19 11 3 20 13 20 22 0 15 1 15 16 1 23 -24 32
-20 40 19 3 19 10 35 14 35 4 0 15 -16 26 -36 l19 -36 -26 -21 c-29 -25 -64
-70 -141 -182 -31 -44 -99 -143 -153 -220 -93 -134 -131 -202 -120 -213 3 -3
6 -3 8 -1 1 2 12 18 23 34 12 17 32 51 44 75 13 25 25 39 27 32 3 -7 -18 -60
-46 -118 -29 -58 -49 -109 -46 -114 9 -14 -15 -23 -30 -10 -11 9 -22 -15 -60
-137 -26 -81 -73 -229 -106 -328 -56 -174 -124 -386 -188 -588 -17 -54 -31
-110 -31 -125 0 -15 -7 -36 -15 -46 -8 -11 -47 -119 -86 -240 -74 -231 -94
-280 -126 -308 -31 -28 -90 -36 -183 -22 -47 7 -110 15 -140 18 -30 3 -95 12
-145 21 -49 9 -108 18 -130 20 -71 8 -348 45 -415 55 -146 23 -288 40 -328 40
-44 0 -124 -33 -217 -89 -27 -17 -60 -35 -72 -41 -41 -18 -73 -42 -67 -51 3
-5 17 -1 32 9 45 31 174 93 180 87 8 -8 -27 -33 -85 -60 -28 -13 -54 -29 -58
-34 -3 -6 -12 -11 -20 -11 -8 0 -33 -13 -57 -29 -24 -16 -102 -60 -173 -96
-72 -37 -135 -71 -140 -76 -17 -13 -328 -167 -352 -174 -14 -4 -23 -2 -23 4 0
6 6 11 14 11 7 0 19 6 25 13 9 11 0 14 -52 13 -70 -1 -140 17 -165 42 -9 9
-46 37 -82 61 -36 24 -76 53 -90 63 -14 11 -43 31 -65 45 -22 15 -125 84 -229
155 -107 72 -204 130 -223 134 -20 4 -67 -2 -121 -15 -48 -11 -100 -23 -117
-25 -16 -2 -57 -10 -90 -19 -33 -8 -72 -18 -87 -21 -18 -4 -28 -13 -28 -25 0
-13 -10 -20 -31 -25 -46 -9 -52 -8 -45 9 5 13 -1 15 -32 10 -108 -17 -171 -48
-72 -35 71 9 62 -5 -12 -19 -35 -7 -77 -16 -94 -21 -38 -12 -64 -13 -64 -1 0
9 48 21 86 21 13 0 24 5 24 11 0 13 -31 10 -158 -14 -55 -11 -76 -11 -85 -3
-7 7 -32 19 -57 29 -25 9 -73 34 -108 54 -34 21 -111 67 -170 103 -59 35 -119
71 -133 80 -131 76 -189 115 -189 126 0 7 -6 11 -13 8 -7 -2 -57 24 -112 59
-113 73 -145 115 -127 166 5 15 6 34 2 41 -4 7 -4 26 0 42 5 15 10 58 12 94 1
36 5 67 9 69 3 2 6 26 7 52 0 26 8 65 17 86 8 21 13 42 10 47 -3 5 -1 12 5 15
7 5 8 11 1 19 -12 15 2 40 19 34 9 -3 14 -31 15 -89 5 -158 23 -249 49 -249 6
0 22 -19 35 -42 34 -59 98 -126 158 -165 83 -53 142 -61 478 -68 765 -14 2059
-20 2320 -10 55 2 253 6 440 9 187 3 423 8 525 11 102 3 299 7 438 11 140 3
297 9 350 13 100 8 169 31 180 60 11 30 89 94 103 86 4 -3 11 4 14 16 4 11 22
27 40 35 33 14 45 31 45 66 0 10 6 26 14 34 21 20 28 101 22 234 -2 63 -5 133
-5 154 -1 52 -12 39 -17 -19 -2 -26 -7 -52 -12 -58 -5 -7 -10 -41 -11 -77 -3
-119 -13 -195 -33 -233 -26 -52 -89 -119 -146 -156 -100 -64 -45 -62 -1362
-60 -657 0 -1258 2 -1335 4 -77 2 -367 4 -645 6 -678 4 -1056 15 -1146 35
-182 39 -290 144 -328 320 -20 90 -24 201 -31 724 -17 1362 -15 1280 -27 1280
-4 0 -5 8 -1 18 3 11 0 9 -11 -6 -10 -12 -22 -20 -27 -17 -8 6 -10 0 -13 -45
-1 -8 -4 -20 -8 -25 -8 -12 -20 -99 -23 -165 -2 -25 -6 -85 -9 -135 -13 -169
-25 -1078 -16 -1120 6 -26 -1 -242 -8 -253 -11 -17 -33 -7 -52 22 -8 13 -55
84 -104 157 -49 74 -138 206 -197 295 -59 89 -122 183 -141 210 -142 202 -251
372 -251 391 0 12 9 35 19 49 37 53 51 80 69 134 10 30 23 61 29 69 6 8 10 17
9 20 -3 7 29 112 69 231 74 215 88 262 83 269 -3 5 2 26 11 47 13 33 13 37 1
24 -18 -18 -67 -111 -67 -126 0 -29 -33 -21 -70 16 -22 22 -40 37 -40 34 0 -4
-7 -1 -15 6 -8 6 -31 21 -52 32 -53 29 -162 28 -199 -1 -15 -12 -33 -21 -40
-21 -14 0 -74 -69 -74 -85 0 -6 -11 -21 -25 -33 -14 -12 -25 -28 -25 -36 0 -7
-11 -30 -25 -50 -19 -29 -27 -55 -32 -114 -3 -42 -11 -86 -17 -97 -13 -24 -14
-34 -17 -193 -2 -67 -6 -128 -10 -134 -5 -7 -27 -12 -53 -10 -26 1 -46 -2 -46
-6 0 -4 -29 -8 -65 -9 -36 -1 -65 0 -65 3 0 3 22 31 48 63 26 31 54 73 62 92
8 19 16 36 19 39 8 6 37 102 48 155 21 96 -9 346 -53 442 -8 17 -14 38 -14 48
0 9 -18 55 -41 103 -23 48 -43 103 -46 122 -3 19 -9 42 -13 50 -5 8 -11 63
-15 123 l-6 107 25 0 c16 0 26 -6 26 -15 0 -8 5 -15 10 -15 6 0 10 -6 9 -12
-3 -17 10 -66 27 -105 8 -17 14 -36 14 -42 0 -22 74 -129 110 -159 56 -47 106
-66 172 -68 52 -1 68 1 68 12 0 8 15 20 33 27 17 8 39 22 47 32 13 17 13 18 0
12 -8 -4 -7 -2 2 5 16 11 14 14 -20 25 -20 7 -27 11 -14 9 20 -4 21 -2 10 12
-34 42 -46 50 -58 39 -7 -7 -10 -7 -7 -2 3 6 -8 21 -24 34 -16 13 -26 27 -23
32 8 14 -20 11 -35 -3 -11 -11 -11 -9 -2 9 10 19 9 22 -4 17 -8 -3 -22 1 -31
10 -8 9 -20 13 -26 10 -7 -4 -8 -2 -4 5 4 6 12 9 17 6 5 -4 9 0 9 7 0 9 3 9
10 -2 6 -9 10 -10 10 -3 0 18 -13 22 -40 10 -39 -16 -55 -18 -41 -4 16 16 14
30 -5 23 -8 -3 -22 1 -30 9 -11 11 -12 15 -3 15 7 0 9 3 6 7 -4 3 -1 13 5 22
10 13 10 14 -2 4 -19 -18 -35 -16 -21 1 10 11 9 14 -1 12 -7 -1 -19 -6 -27
-10 -10 -6 -12 -5 -7 2 11 19 -3 35 -20 22 -7 -7 -19 -10 -26 -7 -8 4 -7 6 5
6 9 1 17 6 17 13 0 6 -3 8 -7 5 -3 -4 -15 0 -25 10 -10 9 -18 13 -18 8 0 -4
-7 -2 -15 5 -12 10 -13 16 -4 27 17 19 3 29 -18 12 -10 -9 -14 -9 -10 -2 5 7
-5 25 -23 44 -16 18 -30 39 -31 48 0 10 -3 8 -9 -6 -5 -13 -12 -23 -15 -23 -4
0 -3 5 0 10 7 12 -16 70 -27 70 -5 0 -8 -4 -8 -10 0 -5 -7 -7 -15 -4 -14 6
-14 8 1 19 16 11 16 12 0 18 -10 4 -15 3 -11 -3 3 -6 4 -10 1 -10 -3 0 -10 10
-17 21 -8 15 -8 19 0 15 6 -4 11 -1 11 7 0 8 -11 18 -25 21 -16 4 -23 11 -19
18 5 8 2 9 -10 5 -13 -5 -18 0 -23 23 -5 27 -13 34 -34 32 -6 -1 -13 30 -24
113 -11 74 -18 100 -28 107 -7 4 -7 8 -2 8 6 0 33 -20 60 -45 28 -25 68 -55
90 -67 22 -11 56 -32 75 -47 19 -14 49 -36 66 -47 46 -32 90 -70 165 -144 36
-36 94 -87 129 -115 34 -27 79 -64 99 -81 51 -45 191 -144 221 -158 14 -6 54
-31 90 -57 87 -62 297 -182 321 -183 11 -1 23 -6 27 -12 10 -14 111 -50 212
-74 57 -14 147 -24 275 -30 173 -9 220 -13 265 -26 24 -6 54 -97 70 -210 25
-177 108 -393 151 -394 3 0 -4 35 -16 78 -13 42 -29 119 -36 169 -7 51 -16 88
-20 82 -9 -16 -15 -3 -30 76 -8 41 -20 75 -30 82 -11 9 -18 35 -23 90 -4 43
-9 92 -10 108 -2 17 -9 30 -16 30 -14 0 -16 9 -26 128 -6 67 -10 81 -32 97
-38 30 -58 26 -33 -6 22 -29 27 -54 12 -69 -17 -18 -41 -132 -35 -164 8 -39 7
-39 -131 -44 -114 -5 -255 12 -330 38 -92 32 -145 54 -235 97 -52 25 -116 55
-141 67 -26 12 -54 30 -64 41 -10 11 -25 20 -34 20 -17 0 -91 65 -91 79 0 5
-12 11 -27 14 -16 3 -49 26 -76 51 -26 25 -52 46 -58 46 -14 0 -88 52 -173
123 -38 31 -74 57 -80 57 -17 1 -69 51 -96 93 -14 20 -34 40 -45 43 -11 4 -33
15 -48 26 -15 11 -40 23 -54 27 -17 5 -30 17 -36 37 -14 40 -24 47 -138 97
-64 28 -171 108 -188 140 -26 51 -40 106 -28 110 9 3 9 10 -1 31 -11 26 -11
28 5 22 16 -5 16 -5 -1 8 -10 8 -16 21 -13 29 6 16 -27 49 -40 39 -4 -4 1 4
12 17 14 17 16 25 8 28 -20 7 -15 29 11 49 14 10 23 22 20 26 -3 4 2 11 10 14
9 3 13 10 10 15 -3 5 -2 15 3 22 11 17 13 38 3 32 -14 -8 -23 35 -11 49 6 8 9
22 5 32 -4 14 -3 16 4 5 8 -11 11 -9 17 8 3 11 11 21 16 21 7 0 8 12 4 31 -5
21 -4 29 3 25 6 -3 14 -2 17 4 4 6 1 9 -6 8 -23 -6 -19 19 6 32 26 14 34 32
13 26 -7 -1 -10 -1 -5 1 4 3 5 9 2 14 -4 5 2 6 11 2 13 -5 15 -3 8 8 -15 24
-13 39 7 52 10 6 19 15 19 20 0 4 -5 5 -12 1 -7 -5 -9 -2 -5 9 3 9 1 18 -6 21
-7 4 -2 4 10 2 27 -5 36 15 14 31 -14 10 -13 11 4 7 15 -4 25 4 39 30 10 19
16 39 12 44 -3 6 0 22 8 37 9 17 16 22 19 13 3 -7 6 -3 6 10 1 12 -3 22 -8 22
-5 0 -12 8 -16 18 -5 14 -4 15 6 5 18 -18 29 -16 29 6 0 11 9 23 20 26 11 4
18 11 14 16 -3 6 2 19 11 29 10 11 15 26 12 33 -4 11 0 13 16 10 18 -4 19 -3
7 6 -13 9 -13 11 2 11 9 0 20 10 24 23 4 12 11 25 17 29 6 3 11 16 12 27 1 11
-2 18 -7 15 -15 -9 -8 6 11 25 11 11 23 16 27 13 4 -4 4 4 1 17 -4 17 -1 24
14 28 10 3 19 10 19 15 0 5 4 7 8 4 5 -3 8 8 7 24 -1 20 5 32 19 40 28 15 80
84 67 88 -5 2 -2 11 7 21 9 10 22 26 29 37 12 19 12 19 6 0 -6 -17 -4 -17 16
3 12 12 20 29 17 37 -3 9 1 14 12 14 14 0 15 2 2 10 -12 8 -12 10 3 16 9 3 14
10 11 15 -3 5 8 23 24 39 27 27 28 30 11 35 -22 7 -79 74 -79 92 0 16 -10 16
-85 -2 -33 -8 -83 -15 -111 -15 -56 0 -90 -23 -78 -54 4 -11 1 -16 -10 -16 -9
0 -13 -6 -10 -15 4 -8 -1 -17 -9 -21 -9 -3 -13 -12 -10 -20 3 -8 -3 -24 -12
-34 -10 -11 -15 -20 -10 -20 4 0 1 -8 -6 -17 -9 -11 -10 -14 -2 -9 9 5 11 2 7
-8 -3 -9 -11 -14 -17 -13 -7 1 -11 -8 -11 -21 1 -12 -1 -20 -4 -17 -10 10 -29
-40 -20 -52 7 -8 3 -10 -11 -6 -16 4 -21 1 -21 -16 0 -23 15 -29 23 -8 3 6 6
2 6 -10 1 -12 -4 -25 -11 -29 -7 -5 -9 -2 -4 7 4 8 -2 3 -13 -10 -12 -12 -18
-27 -15 -33 3 -5 -1 -17 -10 -27 -9 -10 -14 -25 -10 -34 3 -10 -2 -20 -16 -27
-21 -11 -21 -12 -3 -26 17 -14 17 -14 -1 -8 -15 6 -17 3 -11 -15 5 -16 1 -23
-17 -30 -13 -6 -17 -10 -9 -10 8 -1 11 -7 7 -17 -3 -8 -1 -25 5 -37 12 -21 11
-21 -8 -5 -15 14 -22 15 -31 6 -7 -7 -12 -17 -12 -22 0 -6 -6 -22 -13 -37 -8
-14 -12 -34 -11 -44 2 -11 -2 -25 -7 -31 -5 -7 -11 -25 -12 -42 -1 -16 -5 -28
-9 -25 -5 2 -8 -2 -8 -11 0 -8 -5 -16 -11 -18 -11 -4 -15 -40 -8 -65 2 -6 0
-11 -6 -11 -5 0 -9 5 -7 11 3 9 0 9 -8 0 -7 -6 -9 -17 -4 -25 11 -18 14 -39 4
-33 -4 2 -16 -5 -26 -17 -15 -16 -16 -22 -6 -26 10 -3 8 -8 -7 -18 -12 -9 -18
-22 -16 -34 2 -11 -4 -24 -13 -29 -14 -8 -15 -13 -4 -30 10 -18 10 -21 -3 -21
-8 0 -15 -6 -16 -12 -1 -28 -10 -62 -18 -72 -4 -6 -11 -30 -15 -54 -3 -24 -10
-51 -15 -60 -14 -28 -29 -84 -36 -132 -4 -25 -11 -50 -16 -56 -5 -6 -16 -44
-25 -85 -9 -41 -22 -83 -29 -94 -13 -22 -33 -79 -40 -115 -3 -13 -9 -28 -14
-33 -5 -5 -7 -15 -5 -22 3 -7 1 -16 -5 -20 -6 -3 -11 -12 -11 -20 0 -8 -5 -26
-12 -42 -7 -15 -13 -32 -13 -38 -1 -5 -7 -23 -14 -38 -6 -16 -9 -33 -6 -37 3
-5 -1 -26 -10 -46 -8 -21 -18 -65 -20 -98 -3 -34 -7 -72 -9 -86 -3 -14 -8 -68
-11 -120 -4 -52 -8 -97 -10 -100 -1 -3 -6 -54 -10 -115 -4 -60 -8 -112 -10
-115 -3 -5 -11 -102 -29 -367 -5 -60 7 -53 22 13 8 31 33 95 58 142 24 47 42
87 40 90 -3 2 9 25 25 52 16 26 29 53 29 61 0 7 13 40 29 73 16 34 32 78 36
99 3 20 10 37 14 37 9 0 27 70 44 177 7 39 15 75 19 79 5 4 8 21 9 38 0 28 15
78 19 66 24 -63 11 -319 -20 -425 -5 -16 -17 -57 -26 -90 -10 -33 -20 -67 -24
-75 -18 -36 -41 -129 -45 -179 -3 -30 -9 -57 -14 -60 -9 -6 -35 -172 -33 -208
1 -12 -3 -25 -8 -28 -6 -3 -10 -13 -10 -21 0 -8 3 -13 8 -11 4 3 8 -36 9 -86
3 -112 10 -162 29 -204 8 -17 14 -38 14 -46 0 -7 27 -50 60 -95 33 -44 60 -83
60 -86 0 -4 -9 -2 -21 5 -12 6 -30 9 -40 6 -10 -3 -19 -1 -19 5 0 11 -51 1
-60 -11 -3 -5 -19 -8 -35 -8 -18 0 -48 -12 -73 -30 -36 -27 -47 -30 -78 -23
-19 5 -39 11 -42 15 -21 21 -22 608 -1 885 13 183 76 775 94 880 14 85 102
497 129 600 162 631 283 961 546 1491 23 48 27 61 15 65 -8 3 -18 3 -23 0 -12
-7 -57 -102 -66 -138 -3 -16 -11 -28 -16 -28 -6 0 -10 -6 -10 -13 0 -7 -16
-46 -36 -87 -308 -641 -592 -1655 -684 -2439 -67 -573 -47 -1109 66 -1751 28
-160 33 -185 43 -235 30 -151 141 -559 205 -750 72 -213 205 -549 227 -570 6
-5 1 15 -11 45 -134 346 -205 568 -309 965 -91 351 -143 643 -145 815 -2 157
18 123 31 -55 20 -257 54 -440 147 -800 110 -422 188 -669 299 -945 103 -257
147 -345 172 -345 11 -1 19 -7 17 -14 -3 -16 41 -113 71 -155 20 -29 41 -65
74 -131 9 -16 32 -50 53 -75 20 -25 43 -56 50 -70 13 -24 32 -51 122 -173 184
-248 448 -530 658 -702 40 -33 85 -70 99 -82 59 -50 258 -193 360 -258 152
-97 215 -136 261 -159 30 -16 60 -33 67 -38 20 -16 226 -119 328 -165 55 -25
118 -53 140 -63 22 -10 67 -28 100 -40 77 -28 155 -59 180 -70 11 -6 90 -30
175 -55 85 -25 164 -49 175 -54 18 -8 345 -78 475 -102 362 -66 884 -83 1290
-43 262 27 289 31 495 74 110 23 225 47 255 52 30 5 64 14 75 19 25 11 283 89
297 89 5 0 24 7 41 15 18 8 88 35 157 60 69 26 148 57 175 70 28 12 91 40 140
61 50 21 120 55 157 76 37 21 71 38 76 38 5 0 20 8 33 19 13 10 60 37 103 60
43 23 115 66 160 95 45 29 92 59 106 66 14 7 43 28 66 47 23 18 45 33 50 33 5
0 30 17 56 38 119 96 222 179 246 197 46 35 255 229 324 301 121 126 281 309
287 327 2 7 20 31 40 53 33 38 81 104 106 143 17 28 59 86 65 91 4 3 19 29 35
58 15 28 32 52 36 52 4 0 11 10 15 23 4 12 18 40 32 62 14 22 35 58 47 80 12
22 43 77 68 121 26 45 47 86 47 91 0 5 24 57 54 115 30 58 64 134 77 169 12
35 26 69 30 74 25 34 164 430 229 656 93 320 165 667 217 1043 20 147 26 235
27 381 1 105 5 196 10 204 12 18 9 374 -4 581 -27 415 -72 714 -169 1120 -91
380 -111 471 -109 495 2 24 -32 144 -42 150 -5 3 -6 -4 -3 -15 3 -11 3 -20 0
-20 -8 0 -59 161 -53 167 3 3 8 -6 12 -21 3 -14 10 -24 14 -21 8 5 -91 305
-101 305 -3 0 12 -53 33 -117 56 -170 41 -161 -21 13 -103 291 -205 541 -328
804 -103 219 -94 206 -157 213 -38 4 -66 14 -88 30 l-31 25 -48 -49 -48 -49
21 -47 c42 -96 7 -221 -79 -279 l-31 -20 49 -28 c26 -15 63 -46 82 -69 44 -55
141 -229 161 -290 9 -27 34 -70 55 -95 52 -63 157 -255 173 -317 7 -27 23 -61
36 -75 37 -41 75 -129 80 -184 3 -34 -2 -70 -15 -107 l-19 -56 47 -12 c83 -22
126 -76 197 -248 33 -81 63 -166 67 -188 4 -22 16 -54 26 -71 32 -53 59 -144
59 -199 0 -39 5 -56 20 -70 16 -15 17 -19 5 -31 -11 -12 -18 -12 -41 1 -26 13
-28 18 -29 92 -1 76 -10 105 -55 183 -8 14 -22 54 -31 90 -25 96 -115 299
-146 332 -36 38 -103 62 -153 55 -22 -3 -63 -20 -91 -37 -48 -31 -50 -32 -64
-14 -23 30 -19 37 45 77 82 53 117 96 126 153 11 73 -29 171 -85 210 -13 9
-21 26 -21 43 0 37 -18 80 -88 204 -31 56 -76 121 -99 144 -30 28 -43 50 -43
68 0 26 -32 98 -88 195 -76 133 -117 169 -215 190 -105 21 -213 -31 -269 -131
-16 -28 -28 -39 -45 -39 -13 0 -37 -7 -53 -15 -17 -9 -30 -12 -30 -7 0 12 31
38 55 46 58 19 88 67 110 179 18 84 19 87 46 87 15 0 58 -7 94 -15 75 -18 121
-10 163 29 53 48 72 138 42 204 -16 36 -12 36 -118 6 l-53 -16 21 -34 c11 -20
20 -37 20 -40 0 -9 -50 -2 -135 20 -78 20 -93 28 -115 57 -14 19 -34 44 -46
55 -11 11 -28 31 -37 44 l-16 23 -53 -40 c-73 -56 -98 -67 -216 -97 -249 -63
-421 -14 -559 159 l-32 40 -1 -45 c0 -25 -3 -54 -6 -65 -4 -15 18 -53 77 -135
45 -63 123 -173 172 -245 91 -132 138 -189 170 -206 23 -13 251 -51 303 -51
23 0 56 8 73 17 32 16 32 16 19 -6 -7 -12 -19 -31 -25 -43 -7 -11 -13 -44 -13
-72 0 -45 7 -63 66 -160 79 -130 122 -185 169 -214 29 -18 35 -28 35 -56 0
-18 8 -52 17 -76 24 -60 139 -247 178 -288 18 -19 36 -51 40 -70 11 -57 143
-307 183 -348 10 -9 26 -42 35 -73 19 -61 74 -134 109 -142 21 -6 23 -11 23
-84 0 -71 3 -83 34 -132 18 -30 39 -75 47 -100 19 -63 48 -108 85 -130 30 -19
31 -22 33 -93 2 -70 19 -128 51 -168 7 -8 15 -33 18 -55 4 -22 20 -67 37 -101
26 -53 31 -94 13 -94 -18 0 -77 108 -88 160 -4 19 -19 58 -33 85 -29 58 -52
137 -52 182 0 21 -7 37 -21 47 -31 21 -63 73 -85 136 -10 30 -26 65 -36 78
-26 36 -58 128 -58 170 0 32 -8 46 -49 89 -32 33 -56 71 -71 109 -12 33 -32
73 -44 89 -34 45 -151 263 -171 320 -11 28 -33 68 -50 90 -35 45 -142 219
-173 280 -10 22 -22 57 -26 78 -5 27 -20 50 -56 83 -28 26 -85 103 -132 178
-75 120 -82 136 -86 191 l-4 61 -151 23 c-84 13 -163 29 -177 36 -39 21 -70
58 -200 243 -66 95 -140 200 -164 233 l-44 60 -21 -34 c-38 -62 -133 -107
-226 -107 -73 0 -229 41 -280 73 l-50 32 -97 -9 c-87 -8 -104 -7 -166 13 -68
22 -69 22 -133 4 -91 -25 -376 -26 -469 0 -106 28 -188 75 -281 162 -94 87
-155 129 -164 114 -4 -5 -13 -5 -25 1 -24 13 -30 13 -30 0 0 -5 5 -9 12 -7 6
1 17 -9 24 -21 7 -15 13 -19 16 -11 3 9 6 9 10 -3 5 -11 2 -15 -10 -13 -9 2
-21 4 -26 4 -4 1 -6 8 -2 16 3 8 1 15 -4 15 -6 0 -10 -6 -10 -12 -1 -7 -9 -3
-19 10 -11 12 -29 22 -40 22 -12 0 -29 8 -39 18 -38 38 -80 60 -125 67 -34 5
-58 17 -82 40 -32 29 -42 33 -121 39 -47 3 -96 11 -107 18 -20 11 -113 18
-214 18 -29 0 -49 6 -62 19 -14 14 -23 16 -37 8z m94 -60 c7 -6 12 -20 11 -31
-3 -40 1 -54 17 -60 13 -5 15 -2 11 14 -6 25 7 34 30 21 11 -5 36 -6 61 -1 39
7 43 6 48 -16 6 -24 22 -29 72 -25 16 1 22 -4 22 -19 0 -11 -7 -23 -15 -27 -9
-3 -22 -18 -31 -34 -18 -36 -34 -37 -34 -3 0 21 -3 24 -21 19 -12 -4 -24 -3
-28 3 -3 5 -20 13 -38 16 -26 6 -32 4 -38 -14 -9 -29 -36 -60 -52 -60 -7 0
-10 7 -7 15 4 8 -1 17 -9 21 -12 4 -14 11 -6 31 12 33 12 34 -15 27 -18 -4
-29 2 -49 26 -25 29 -26 33 -11 55 9 13 13 29 9 36 -17 27 40 32 73 6z m354
-132 c5 -22 4 -32 -7 -38 -24 -13 -17 -25 10 -19 14 2 25 0 25 -6 0 -5 9 -12
20 -15 22 -6 28 -27 8 -27 -7 -1 -33 -21 -58 -45 -45 -46 -67 -57 -56 -30 3 8
9 22 12 30 8 19 -18 20 -46 3 -17 -11 -22 -10 -29 0 -4 7 -15 10 -24 6 -47
-18 9 59 62 84 28 14 35 23 33 41 -3 26 15 54 31 48 6 -2 14 -16 19 -32z
m-392 -31 c0 -2 -7 -16 -16 -29 -9 -13 -13 -29 -9 -35 10 -16 -6 -35 -16 -19
-7 11 -14 8 -30 -13 -23 -31 -39 -36 -39 -13 0 17 -25 20 -35 5 -9 -15 -25
-12 -25 5 0 22 41 55 67 55 15 0 27 8 32 23 6 15 18 23 40 24 17 1 31 0 31 -3z
m564 -29 c3 -8 1 -15 -3 -15 -5 0 -11 7 -15 15 -3 8 -1 15 3 15 5 0 11 -7 15
-15z m-29 -96 c4 -11 5 -22 3 -23 -62 -41 -72 -38 -41 15 20 34 29 36 38 8z
m75 -117 c0 -11 -51 -35 -58 -28 -3 3 1 12 8 21 13 16 50 21 50 7z m-371 -65
c22 6 71 -32 71 -55 0 -21 -44 -32 -84 -20 -28 9 -36 17 -36 35 0 13 -4 23
-10 23 -5 0 -10 -9 -10 -20 0 -23 -25 -27 -34 -5 -6 18 -29 19 -55 3 -21 -13
-51 -5 -51 15 0 28 109 49 157 31 17 -7 41 -10 52 -7z m3366 -109 c8 -7 -18
-138 -27 -138 -5 0 -26 28 -48 62 -38 58 -50 85 -32 74 4 -2 13 -2 19 2 12 8
81 7 88 0z m-135 -206 c0 -8 -7 -11 -17 -9 -10 3 -40 8 -68 12 -59 8 -88 22
-79 37 4 5 0 14 -7 19 -11 7 -11 9 -1 9 9 0 11 7 7 20 -5 15 2 29 25 50 l32
30 54 -77 c30 -43 54 -84 54 -91z m-6943 111 c-14 -14 -19 -15 -29 -4 -7 8 -8
11 -3 8 6 -3 17 -2 25 4 23 14 26 11 7 -8z m2908 -13 c-3 -5 -11 -10 -16 -10
-6 0 -7 5 -4 10 3 6 11 10 16 10 6 0 7 -4 4 -10z m1566 -83 c-10 -9 -11 -8 -5
6 3 10 9 15 12 12 3 -3 0 -11 -7 -18z m-338 -124 c37 -50 36 -71 -5 -69 -27 1
-33 7 -45 40 -10 29 -10 42 -2 52 16 20 21 18 52 -23z m3335 10 c21 -19 142
-217 142 -233 0 -6 -9 -10 -19 -10 -46 0 -69 20 -117 104 -43 75 -53 86 -76
86 -49 0 -46 -36 11 -131 34 -56 51 -95 51 -117 0 -87 -80 -144 -155 -110 -23
10 -165 224 -165 248 0 12 6 12 50 0 30 -8 43 -21 75 -77 54 -92 79 -117 105
-103 32 17 24 52 -30 142 -27 46 -50 93 -50 106 0 31 25 77 52 96 30 22 101
21 126 -1z m-3391 -149 c4 -10 13 -14 26 -10 28 7 49 -18 41 -49 -4 -15 -2
-25 5 -25 19 0 12 -16 -14 -30 -20 -10 -28 -11 -37 -2 -7 7 -18 12 -25 12 -18
0 -66 39 -81 66 -4 8 -29 16 -57 19 -52 5 -74 15 -34 15 13 0 30 4 37 9 8 4
41 9 73 9 45 1 62 -3 66 -14z m-357 -34 c0 -11 -4 -20 -10 -20 -5 0 -10 9 -10
20 0 11 5 20 10 20 6 0 10 -9 10 -20z m2475 -10 c3 -5 -1 -10 -9 -10 -9 0 -16
5 -16 10 0 6 4 10 9 10 6 0 13 -4 16 -10z m-2200 -59 c3 -6 -4 -15 -15 -21
-15 -8 -19 -17 -14 -35 4 -16 2 -25 -6 -25 -6 0 -14 9 -17 20 -7 28 -23 25
-23 -4 0 -14 11 -37 25 -52 28 -31 31 -49 11 -70 -19 -18 -26 -18 -26 2 0 27
-58 101 -90 114 -16 7 -30 16 -30 21 0 12 37 11 61 -1 15 -8 19 -7 19 4 0 8
-10 16 -22 18 -12 2 -24 9 -26 17 -4 11 3 13 29 9 19 -3 43 -2 54 3 28 11 63
11 70 0z m872 -7 c-3 -3 -12 -4 -19 -1 -8 3 -5 6 6 6 11 1 17 -2 13 -5z m-665
-46 c24 -37 29 -73 13 -94 -9 -11 -14 -42 -15 -77 0 -32 -5 -68 -11 -79 -17
-33 -14 -87 8 -103 17 -13 17 -14 -2 -28 -14 -11 -17 -18 -8 -28 5 -8 13 -40
16 -72 l6 -57 -27 6 c-36 9 -36 8 -18 42 19 36 14 54 -20 72 -29 16 -43 6 -26
-21 11 -18 10 -19 -13 -13 -18 4 -27 2 -31 -10 -3 -9 -12 -16 -20 -16 -17 0
-19 37 -1 43 8 3 6 10 -8 24 -17 16 -20 31 -19 102 2 87 7 102 26 83 18 -18
28 -15 28 8 0 20 77 130 91 130 5 0 9 9 9 20 0 13 -7 20 -20 20 -24 0 -24 3
-5 40 19 36 28 37 47 8z m2208 -14 c0 -19 -16 -18 -24 2 -11 27 -7 37 9 24 8
-7 15 -19 15 -26z m-6750 -54 c-6 -11 -13 -20 -16 -20 -2 0 0 9 6 20 6 11 13
20 16 20 2 0 0 -9 -6 -20z m8047 -32 c23 -26 128 -212 137 -244 13 -42 -11
-70 -129 -149 -112 -76 -118 -78 -142 -65 -15 9 -57 68 -100 142 -92 157 -92
159 24 238 44 30 93 65 109 77 37 29 75 29 101 1z m-8223 -73 c-4 -8 -10 -15
-15 -15 -4 0 -6 7 -3 15 4 8 10 15 15 15 4 0 6 -7 3 -15z m4504 -4 c3 -8 -1
-12 -9 -9 -7 2 -15 10 -17 17 -3 8 1 12 9 9 7 -2 15 -10 17 -17z m-125 -35
c23 -17 22 -46 -1 -46 -15 0 -42 36 -42 55 0 10 25 4 43 -9z m-4403 -26 c0 -5
-5 -10 -11 -10 -5 0 -7 5 -4 10 3 6 8 10 11 10 2 0 4 -4 4 -10z m4270 -9 c13
-26 13 -31 -3 -31 -8 0 -22 -9 -32 -20 -15 -16 -15 -22 -5 -35 10 -12 10 -15
-4 -15 -27 0 -29 27 -6 75 24 49 34 55 50 26z m-4277 -36 c-7 -21 -12 -19 -10
4 0 11 5 18 9 15 4 -3 5 -11 1 -19z m4352 -5 c0 -22 -29 -18 -33 3 -3 14 1 18
15 15 10 -2 18 -10 18 -18z m75 -5 c0 -8 -7 -15 -15 -15 -8 0 -15 7 -15 15 0
8 7 15 15 15 8 0 15 -7 15 -15z m-4465 -85 c3 -6 -1 -7 -9 -4 -18 7 -21 14 -7
14 6 0 13 -4 16 -10z m8525 -139 c18 -35 11 -46 -72 -98 -46 -29 -99 -66 -118
-82 l-35 -29 58 -116 c31 -64 57 -119 57 -122 0 -3 -12 -4 -27 -2 -24 3 -37
20 -99 133 -54 98 -69 133 -60 142 15 16 269 191 278 192 4 1 12 -8 18 -18z
m-3870 -61 c-6 -11 -15 -18 -19 -15 -14 8 -20 59 -8 73 17 21 41 -31 27 -58z
m-306 41 c9 -13 -31 -21 -113 -21 -86 0 -88 9 -4 20 85 11 111 11 117 1z
m-4264 -11 c0 -5 -5 -10 -11 -10 -5 0 -7 5 -4 10 3 6 8 10 11 10 2 0 4 -4 4
-10z m4730 -19 c0 -5 -6 -14 -14 -20 -12 -10 -13 -8 -9 8 5 21 23 30 23 12z
m-50 -67 c0 -8 -5 -12 -10 -9 -6 4 -8 11 -5 16 9 14 15 11 15 -7z m-4770 -24
c0 -5 -2 -10 -4 -10 -3 0 -8 5 -11 10 -3 6 -1 10 4 10 6 0 11 -4 11 -10z m45
-106 c-10 -8 -24 -14 -29 -13 -6 0 -5 3 2 6 9 3 10 9 2 18 -8 9 -4 11 17 7 25
-5 25 -6 8 -18z m4140 -4 c19 -11 39 -19 43 -18 10 3 48 -10 100 -34 46 -20
51 -43 10 -43 -14 0 -32 -6 -41 -13 -12 -10 -20 -10 -34 -2 -23 14 -93 -12
-93 -35 0 -8 -4 -15 -10 -15 -5 0 -10 5 -10 10 0 6 -7 10 -16 10 -10 0 -14 6
-11 14 3 7 0 19 -6 25 -16 16 -9 94 11 109 20 15 15 16 57 -8z m-285 0 c0 -5
-5 -10 -11 -10 -5 0 -7 5 -4 10 3 6 8 10 11 10 2 0 4 -4 4 -10z m182 -45 c-2
-14 0 -31 6 -38 9 -11 0 -57 -12 -57 -7 0 -36 61 -36 77 0 7 7 13 15 13 8 0
15 9 15 21 0 11 4 18 9 15 4 -3 6 -17 3 -31z m-88 -1 c10 -25 -1 -29 -14 -5
-6 12 -7 21 -1 21 5 0 12 -7 15 -16z m-3929 -13 c3 -5 2 -12 -3 -15 -5 -3 -9
1 -9 9 0 17 3 19 12 6z m8653 -99 c15 -10 122 -264 122 -290 0 -26 -25 -57
-64 -80 -34 -20 -35 -20 -52 -1 -17 19 -16 21 21 54 45 41 44 52 -9 168 -39
85 -52 92 -100 54 l-29 -24 28 -69 c15 -38 40 -103 55 -146 l28 -76 -58 -41
c-67 -47 -77 -49 -89 -18 -11 27 -1 40 50 69 22 12 39 29 39 39 0 20 -75 198
-90 213 -5 5 -29 -6 -60 -29 -28 -21 -52 -36 -54 -34 -15 17 -26 53 -19 59 4
5 58 42 118 84 107 72 136 85 163 68z m-1771 -354 c-3 -8 -6 -5 -6 6 -1 11 2
17 5 13 3 -3 4 -12 1 -19z m-6687 -68 c0 -5 -2 -10 -4 -10 -3 0 -8 5 -11 10
-3 6 -1 10 4 10 6 0 11 -4 11 -10z m6687 -22 c-3 -8 -6 -5 -6 6 -1 11 2 17 5
13 3 -3 4 -12 1 -19z m1974 -24 c7 -21 5 -41 -11 -90 -12 -35 -25 -64 -30 -64
-10 0 -20 26 -20 52 0 11 -8 22 -19 25 -37 9 -35 36 5 71 45 39 61 40 75 6z
m-161 -103 c0 -23 -9 -36 -42 -60 -23 -17 -47 -31 -54 -31 -10 0 -30 48 -22
55 12 11 104 65 110 65 4 0 8 -13 8 -29z m54 -367 c-33 -27 -40 -24 -49 17 -5
20 1 51 16 96 l23 65 19 -78 19 -78 -28 -22z m27 -167 c-8 -8 -11 -7 -11 4 0
20 13 34 18 19 3 -7 -1 -17 -7 -23z m-1337 -38 c28 -55 31 -63 17 -55 -9 6
-51 87 -51 99 0 17 11 3 34 -44z m66 -133 c0 -6 -7 -2 -15 8 -8 11 -15 25 -15
30 0 6 7 2 15 -8 8 -11 15 -25 15 -30z m-100 30 c0 -3 -4 -8 -10 -11 -5 -3
-10 -1 -10 4 0 6 5 11 10 11 6 0 10 -2 10 -4z m125 -76 c9 -18 11 -30 5 -30
-9 0 -30 40 -30 56 0 12 11 1 25 -26z m44 -95 c0 -5 -6 -1 -14 9 -8 11 -15 27
-15 35 1 17 29 -26 29 -44z m-5772 14 c-9 -6 -14 -15 -11 -21 5 -7 2 -8 -5 -4
-9 6 -8 13 5 27 9 11 20 17 23 13 3 -3 -2 -10 -12 -15z m5671 -89 c-14 -22
-24 -19 -15 5 4 8 11 15 17 15 6 0 6 -7 -2 -20z m225 -165 c3 -19 1 -23 -8
-15 -7 6 -15 22 -18 35 -3 19 -1 23 8 15 7 -6 15 -22 18 -35z m-7109 -454 c17
-18 17 -20 -1 -29 -14 -9 -16 -13 -5 -23 6 -7 12 -31 12 -53 0 -23 10 -63 23
-91 13 -27 29 -70 36 -95 7 -25 17 -52 21 -60 48 -84 67 -132 54 -137 -8 -3
-14 -11 -14 -19 0 -19 10 -18 26 3 11 17 13 16 18 -7 13 -66 15 -90 5 -96 -16
-10 -23 3 -22 41 1 19 -3 35 -8 35 -5 0 -9 -4 -9 -9 0 -5 -9 -11 -21 -14 -12
-3 -18 -10 -14 -17 4 -6 13 -9 21 -6 8 3 14 -1 14 -9 0 -8 -7 -15 -15 -15 -8
0 -15 -6 -15 -14 0 -7 -7 -19 -15 -26 -14 -11 -14 -10 -6 13 8 19 6 28 -5 37
-12 11 -14 7 -14 -23 0 -20 -5 -39 -10 -42 -8 -5 -7 -11 1 -21 9 -11 9 -14 -1
-14 -9 0 -9 -6 2 -22 12 -20 12 -27 -4 -58 l-18 -35 6 41 c6 39 4 42 -22 52
-28 10 -28 10 -5 11 23 1 24 2 6 21 -15 17 -16 20 -3 20 11 0 17 15 22 51 7
54 1 75 -15 47 -5 -9 -17 -14 -27 -11 -23 6 -47 -38 -29 -56 8 -8 14 -5 24 11
9 17 12 19 13 7 0 -9 -6 -22 -14 -29 -8 -6 -12 -18 -9 -27 3 -9 2 -14 -3 -11
-5 2 -25 12 -45 21 -20 9 -39 23 -42 31 -4 9 -13 13 -22 10 -9 -4 -15 -1 -16
7 -1 8 -7 -6 -14 -31 -10 -35 -13 -39 -15 -20 -7 83 -10 103 -20 115 -6 7 -12
32 -13 54 -1 28 -5 40 -13 37 -19 -7 -31 14 -39 66 -4 26 -13 49 -20 52 -8 3
-11 13 -8 24 3 13 -1 21 -15 24 -11 3 -40 31 -64 62 -25 31 -61 68 -82 82 -39
27 -40 44 0 44 13 0 24 5 24 11 0 6 -11 8 -27 5 -21 -4 -36 1 -58 20 l-30 26
31 -7 c17 -3 51 -1 75 6 24 6 67 13 94 14 28 2 70 8 94 13 24 6 50 8 58 5 8
-3 24 -1 36 5 51 26 129 27 151 3z m236 -646 c0 -18 -1 -18 -16 -3 -10 10 -14
23 -10 34 6 16 8 16 16 4 6 -8 10 -24 10 -35z m-30 -9 c0 -15 -18 -31 -26 -23
-7 7 7 37 17 37 5 0 9 -6 9 -14z m-313 -40 c-4 -9 -14 -16 -22 -16 -9 0 -14 3
-12 8 2 4 7 16 11 26 5 14 10 16 18 8 6 -6 8 -18 5 -26z m206 -17 c-6 -21 -11
-28 -15 -19 -6 17 9 66 18 58 3 -3 1 -21 -3 -39z m63 7 c1 -17 -2 -23 -12 -19
-15 5 -19 25 -7 36 12 13 18 7 19 -17z m-208 -4 c2 -7 -2 -10 -12 -6 -10 4
-16 1 -16 -7 0 -10 -3 -10 -12 -1 -10 10 -10 15 2 22 18 11 32 8 38 -8z m262
-2 c0 -5 -7 -10 -15 -10 -8 0 -15 5 -15 10 0 6 7 10 15 10 8 0 15 -4 15 -10z
m-230 -72 c0 -10 -3 -18 -7 -18 -12 0 -33 52 -26 63 8 13 33 -21 33 -45z m-66
18 c-7 -17 -34 -23 -34 -6 0 9 32 31 38 26 1 -2 0 -11 -4 -20z m259 -52 c-4
-12 -8 -13 -14 -3 -9 15 -2 32 11 24 5 -3 6 -13 3 -21z m97 16 c0 -5 -5 -10
-11 -10 -5 0 -7 5 -4 10 3 6 8 10 11 10 2 0 4 -4 4 -10z m-357 -26 c3 -3 1
-14 -6 -24 -10 -17 -12 -17 -23 -2 -7 9 -10 20 -8 24 6 10 28 10 37 2z m1022
-84 c7 -22 6 -23 -9 -11 -9 7 -16 24 -16 37 0 12 -4 26 -10 29 -5 3 -10 14
-10 23 1 18 32 -36 45 -78z m-888 28 c-3 -8 -6 -5 -6 6 -1 11 2 17 5 13 3 -3
4 -12 1 -19z m-137 -72 c0 -20 0 -20 -15 0 -8 10 -15 28 -15 38 0 20 0 20 15
0 8 -10 15 -28 15 -38z m1200 -100 c0 -3 -4 -8 -10 -11 -5 -3 -10 -1 -10 4 0
6 5 11 10 11 6 0 10 -2 10 -4z m-1100 -357 c214 -220 412 -400 576 -526 157
-119 546 -327 819 -438 184 -75 291 -126 303 -146 11 -18 9 -29 -16 -82 -117
-251 -478 -832 -565 -909 -31 -29 -64 -21 -166 35 -53 30 -136 72 -186 95
-308 140 -390 182 -580 295 -89 53 -239 168 -272 208 -11 13 -76 162 -158 364
-148 362 -173 425 -166 425 4 0 22 -16 41 -35 19 -19 39 -35 45 -35 7 0 67 53
135 118 l124 117 -44 -80 c-24 -44 -65 -116 -91 -160 l-49 -80 44 -44 c24 -24
49 -41 54 -37 6 4 29 39 50 79 21 40 73 136 115 214 42 78 74 148 71 155 -4 7
-35 39 -69 71 l-62 57 -59 -57 c-91 -89 -156 -145 -161 -140 -2 3 5 40 16 84
11 43 27 110 35 148 9 39 18 79 22 90 6 23 -53 97 -106 135 l-29 20 -51 -87
c-29 -49 -72 -117 -98 -152 -51 -72 -50 -73 -72 40 l-13 67 72 128 c77 139
162 281 181 302 6 6 23 12 38 12 22 0 72 -46 272 -251z m-665 51 c3 -5 1 -10
-4 -10 -6 0 -11 5 -11 10 0 6 2 10 4 10 3 0 8 -4 11 -10z m7085 -75 c0 -8 -4
-15 -10 -15 -5 0 -10 7 -10 15 0 8 5 15 10 15 6 0 10 -7 10 -15z m-5130 -170
c11 -13 10 -14 -4 -9 -9 3 -16 10 -16 15 0 13 6 11 20 -6z m-1635 -206 c-75
-246 -83 -260 -112 -187 -14 36 -14 40 12 85 58 101 118 194 122 190 2 -3 -7
-42 -22 -88z m5017 -325 c-12 -8 -28 -13 -35 -11 -7 3 -1 9 13 15 37 16 47 14
22 -4z m-2007 -13 c-11 -9 -134 -41 -160 -41 -31 0 -4 20 28 21 18 0 50 6 72
14 48 16 73 18 60 6z m-208 -47 c-3 -3 -12 -4 -19 -1 -8 3 -5 6 6 6 11 1 17
-2 13 -5z m3693 -4 c0 -9 -32 -30 -46 -30 -4 0 1 9 11 20 19 21 35 26 35 10z
m-4163 -106 c-3 -3 -12 -4 -19 -1 -8 3 -5 6 6 6 11 1 17 -2 13 -5z"/>
<path d="M7150 8070 c0 -5 5 -10 10 -10 6 0 10 5 10 10 0 6 -4 10 -10 10 -5 0
-10 -4 -10 -10z"/>
<path d="M10542 7880 c-49 -34 -72 -57 -72 -70 0 -11 19 -54 43 -95 45 -80 70
-97 111 -75 53 28 121 87 124 107 2 12 -17 57 -43 102 -37 64 -52 81 -69 81
-13 0 -55 -23 -94 -50z"/>
<path d="M2928 5013 c7 -3 16 -2 19 1 4 3 -2 6 -13 5 -11 0 -14 -3 -6 -6z"/>
<path d="M2798 4993 c7 -3 16 -2 19 1 4 3 -2 6 -13 5 -11 0 -14 -3 -6 -6z"/>
<path d="M2693 4979 c11 -7 23 -7 35 0 14 9 11 10 -18 10 -29 0 -32 -1 -17
-10z"/>
<path d="M3040 4670 c0 -5 5 -10 10 -10 6 0 10 5 10 10 0 6 -4 10 -10 10 -5 0
-10 -4 -10 -10z"/>
<path d="M3090 4644 c0 -8 5 -12 10 -9 6 3 10 10 10 16 0 5 -4 9 -10 9 -5 0
-10 -7 -10 -16z"/>
<path d="M3046 4567 c8 -41 12 -47 30 -47 19 0 18 17 -3 29 -10 6 -12 11 -5
11 21 0 14 36 -9 37 -18 2 -20 -2 -13 -30z"/>
<path d="M3006 4565 c4 -8 8 -15 10 -15 2 0 4 7 4 15 0 8 -4 15 -10 15 -5 0
-7 -7 -4 -15z"/>
<path d="M3116 4565 c-18 -47 3 -71 28 -32 8 12 7 21 -5 33 -15 14 -17 14 -23
-1z"/>
<path d="M2950 4550 c0 -5 5 -10 11 -10 5 0 7 5 4 10 -3 6 -8 10 -11 10 -2 0
-4 -4 -4 -10z"/>
<path d="M2970 4510 c0 -5 5 -10 10 -10 6 0 10 5 10 10 0 6 -4 10 -10 10 -5 0
-10 -4 -10 -10z"/>
<path d="M2898 4483 c6 -2 18 -2 25 0 6 3 1 5 -13 5 -14 0 -19 -2 -12 -5z"/>
<path d="M3095 2844 c-79 -150 -85 -176 -55 -239 29 -59 77 -96 135 -103 38
-4 45 -8 40 -23 -5 -16 25 -46 72 -73 11 -6 97 138 160 268 27 56 27 59 9 70
-10 6 -31 21 -46 34 -15 12 -31 22 -34 22 -3 0 -21 -30 -39 -67 -68 -139 -86
-163 -121 -163 -40 0 -76 35 -76 73 0 15 27 78 59 141 l60 113 -38 37 c-20 20
-42 36 -48 36 -6 0 -41 -57 -78 -126z"/>
<path d="M3545 2611 c-38 -16 -94 -89 -110 -143 -18 -62 -7 -140 26 -182 31
-39 101 -76 157 -83 43 -5 57 -2 96 21 25 15 46 31 46 36 0 4 -19 22 -42 39
-37 28 -43 29 -58 16 -28 -25 -85 -19 -109 11 -27 35 -26 59 4 120 48 96 144
98 164 4 6 -30 13 -37 49 -50 38 -13 44 -13 52 0 12 18 4 65 -18 104 -10 16
-43 47 -74 69 -46 33 -67 41 -110 44 -29 1 -62 -1 -73 -6z"/>
<path d="M3945 2469 c-28 -56 -78 -154 -112 -218 -35 -63 -63 -120 -63 -126 0
-6 20 -21 45 -33 l44 -21 39 67 c22 37 47 81 56 99 21 42 62 73 97 73 30 0 69
-30 69 -52 0 -13 -33 -75 -99 -190 l-32 -57 40 -20 c22 -12 46 -21 53 -21 14
0 44 44 107 162 65 119 57 183 -26 224 -21 10 -59 19 -85 19 -27 0 -48 1 -48
3 0 1 14 29 30 62 17 33 30 68 30 78 0 18 -55 52 -83 52 -7 0 -35 -46 -62
-101z"/>
<path d="M4410 2340 l-20 -40 40 -20 c21 -11 45 -20 52 -20 12 0 48 52 48 70
0 7 -83 50 -96 50 -2 0 -13 -18 -24 -40z"/>
<path d="M4344 2223 c-8 -16 -49 -88 -90 -161 -71 -126 -75 -134 -57 -147 22
-17 72 -39 77 -34 35 40 186 307 186 328 0 9 -71 41 -91 41 -5 0 -17 -12 -25
-27z"/>
<path d="M4496 9337 c3 -10 9 -15 12 -12 3 3 0 11 -7 18 -10 9 -11 8 -5 -6z"/>
<path d="M5516 9151 c-4 -5 3 -7 14 -4 23 6 26 13 6 13 -8 0 -17 -4 -20 -9z"/>
<path d="M7262 9136 c13 -14 28 -12 28 5 0 5 -9 9 -20 9 -17 0 -19 -2 -8 -14z"/>
<path d="M5495 9090 c-3 -5 -1 -10 4 -10 6 0 11 5 11 10 0 6 -2 10 -4 10 -3 0
-8 -4 -11 -10z"/>
<path d="M6046 9011 c-4 -7 -5 -15 -2 -18 9 -9 19 4 14 18 -4 11 -6 11 -12 0z"/>
<path d="M4030 8953 c0 -22 2 -25 10 -13 13 20 13 40 0 40 -5 0 -10 -12 -10
-27z"/>
<path d="M4211 8954 c0 -11 3 -14 6 -6 3 7 2 16 -1 19 -3 4 -6 -2 -5 -13z"/>
<path d="M4440 8955 c0 -8 7 -32 15 -52 17 -41 20 -115 5 -144 -10 -17 -9 -18
14 -8 24 11 25 15 19 78 -3 36 -12 73 -19 82 -8 8 -14 23 -14 32 0 9 -4 19
-10 22 -5 3 -10 -1 -10 -10z"/>
<path d="M10900 8935 c0 -4 33 -78 74 -164 41 -86 81 -174 90 -195 9 -22 19
-37 22 -34 4 5 -169 384 -181 397 -3 2 -5 1 -5 -4z"/>
<path d="M5367 8912 c8 -33 -25 -129 -58 -166 -33 -38 -131 -92 -185 -102 -19
-3 -32 -9 -29 -13 2 -4 -9 -7 -25 -6 -17 1 -30 -2 -30 -7 0 -5 -4 -7 -9 -3
-12 7 -19 -4 -25 -41 -3 -16 -13 -35 -23 -41 -9 -7 -11 -13 -5 -13 24 0 11
-21 -19 -34 -30 -13 -31 -14 -13 -25 14 -9 15 -11 2 -7 -9 2 -19 -2 -22 -10
-5 -12 -10 -13 -27 -3 -15 8 -19 8 -15 0 6 -10 -21 -17 -48 -12 -4 1 -14 -4
-22 -10 -10 -8 -14 -8 -14 0 0 6 -5 11 -11 11 -5 0 -7 -5 -3 -12 5 -8 0 -9
-15 -5 -17 4 -21 1 -19 -11 5 -23 229 -67 404 -79 103 -7 155 6 227 54 23 16
49 32 57 36 8 3 47 29 85 56 39 28 91 64 118 82 26 17 47 37 47 45 0 8 3 13 8
13 21 -4 31 3 29 21 -1 19 -10 25 -31 21 -5 -1 -4 4 2 12 7 8 8 18 4 22 -4 5
-1 5 6 1 15 -9 16 26 1 41 -14 14 8 13 30 -1 10 -7 12 -6 6 4 -6 10 -4 12 9 7
10 -4 15 -3 11 3 -3 6 -13 10 -22 10 -11 0 -13 4 -6 13 5 6 10 26 10 42 0 17
-1 22 -4 12 -3 -12 -12 -17 -26 -15 -14 2 -22 -2 -22 -11 0 -8 -6 -16 -12 -18
-7 -3 -13 1 -13 7 0 7 -6 6 -15 -4 -8 -8 -15 -19 -15 -24 0 -5 -8 -16 -17 -23
-16 -12 -17 -12 -6 1 6 9 10 25 8 35 -2 11 -4 25 -4 30 -1 6 -6 3 -11 -5 -7
-12 -11 -10 -19 10 l-11 25 3 -25 c1 -14 9 -30 17 -37 13 -11 13 -12 -3 -13
-10 0 -20 7 -23 15 -5 11 -10 13 -19 5 -10 -8 -15 -8 -21 1 -4 7 -3 9 4 5 6
-3 16 2 22 13 9 17 8 20 -5 15 -20 -8 -16 16 5 34 12 10 9 10 -15 1 -30 -10
-30 -10 -10 9 11 10 25 18 30 17 6 -1 7 0 2 2 -4 3 -4 10 -1 15 5 7 2 8 -6 3
-10 -6 -12 -4 -8 7 5 12 -7 16 -65 22 -40 3 -84 9 -99 12 -23 5 -26 3 -21 -14z
m-326 -344 c-11 -10 -12 -10 -7 0 4 6 2 12 -3 12 -6 0 -11 8 -11 17 0 16 1 16
17 0 14 -14 15 -19 4 -29z"/>
<path d="M3620 8912 c0 -15 62 -66 98 -81 26 -11 31 -18 26 -36 -6 -24 20 -85
35 -85 5 0 24 8 41 18 31 17 31 18 25 71 -4 30 -10 64 -15 75 -8 20 -9 19 -19
-8 -9 -23 -15 -27 -34 -21 -12 4 -35 9 -52 12 -16 3 -47 18 -67 35 -21 16 -38
25 -38 20z"/>
<path d="M4210 8812 c-5 -95 -7 -105 -30 -122 -17 -14 -20 -20 -10 -20 9 0 33
-9 55 -20 42 -21 95 -27 95 -10 0 6 -3 9 -7 9 -20 -3 -24 2 -13 16 17 21 5 32
-28 27 -18 -2 -33 1 -38 10 -5 7 -11 58 -14 113 l-5 100 -5 -103z"/>
<path d="M6070 8780 c-9 -6 -10 -10 -3 -10 6 0 15 5 18 10 8 12 4 12 -15 0z"/>
<path d="M4014 8732 c-10 -15 -7 -21 20 -39 35 -23 106 -39 106 -24 0 5 -12
12 -27 16 -32 7 -73 38 -73 54 0 17 -14 13 -26 -7z"/>
<path d="M3890 8717 c0 -18 77 -34 92 -19 6 6 -3 11 -24 15 -18 3 -41 8 -50
12 -13 5 -18 2 -18 -8z"/>
<path d="M6005 8720 c-3 -5 -2 -10 4 -10 5 0 13 5 16 10 3 6 2 10 -4 10 -5 0
-13 -4 -16 -10z"/>
<path d="M5740 8655 c14 -17 30 -20 30 -4 0 5 -4 7 -10 4 -5 -3 -10 -1 -10 4
0 6 -5 11 -11 11 -8 0 -8 -5 1 -15z"/>
<path d="M10260 8620 c0 -5 5 -10 10 -10 6 0 10 5 10 10 0 6 -4 10 -10 10 -5
0 -10 -4 -10 -10z"/>
<path d="M11090 8525 c0 -5 5 -17 10 -25 5 -8 10 -10 10 -5 0 6 -5 17 -10 25
-5 8 -10 11 -10 5z"/>
<path d="M8475 8480 c3 -5 11 -10 16 -10 6 0 7 5 4 10 -3 6 -11 10 -16 10 -6
0 -7 -4 -4 -10z"/>
<path d="M11140 8404 c0 -6 11 -37 23 -70 13 -32 32 -81 41 -107 10 -27 20
-46 23 -44 2 3 -12 49 -33 103 -38 103 -53 137 -54 118z"/>
<path d="M6363 8286 c-34 -6 -65 -14 -69 -18 -4 -5 -21 -8 -38 -8 -23 0 -27
-3 -18 -12 18 -18 14 -28 -11 -28 -12 0 -28 -9 -34 -19 -13 -21 -21 -21 93 -6
36 4 36 4 18 -17 -11 -11 -36 -29 -57 -40 -35 -17 -56 -42 -45 -53 7 -7 132
15 143 26 12 12 72 12 79 0 11 -17 -7 -43 -38 -57 l-31 -13 30 -1 c97 -1 207
179 144 236 -23 20 -87 25 -166 10z m60 -90 c9 -7 17 -17 17 -21 0 -5 -8 -1
-18 9 -13 11 -28 14 -50 10 -21 -4 -32 -3 -32 5 0 15 61 13 83 -3z"/>
<path d="M7337 8245 c3 -8 9 -12 14 -9 12 7 11 11 -5 17 -10 4 -13 1 -9 -8z"/>
<path d="M4600 8200 c-158 -12 -279 -83 -334 -197 -11 -21 -25 -49 -32 -63 -8
-17 -9 -31 -3 -43 6 -9 7 -17 3 -17 -3 0 0 -8 7 -17 10 -11 10 -14 2 -9 -16 9
-16 1 -3 -25 7 -12 7 -25 1 -37 -6 -12 -4 -23 9 -40 10 -12 20 -22 22 -22 1 0
3 19 4 42 0 23 5 43 12 46 7 2 12 10 12 17 0 8 14 44 32 82 62 135 184 200
355 189 43 -3 121 -6 174 -8 92 -2 96 -3 91 -22 -4 -17 -2 -19 9 -8 19 18 31
15 24 -7 -3 -11 -1 -22 4 -26 6 -3 9 0 6 7 -3 7 3 18 14 25 17 10 18 9 14 -10
-4 -17 -2 -19 5 -8 9 12 13 13 26 1 9 -7 19 -10 23 -6 3 3 1 6 -5 6 -7 0 -12
5 -12 10 0 15 17 12 36 -7 17 -17 17 -17 11 -1 -3 10 -2 20 3 23 6 4 10 2 10
-2 0 -5 10 -14 23 -22 20 -13 21 -13 9 2 -8 9 -9 18 -3 21 5 4 13 1 16 -5 4
-5 14 -8 22 -5 8 3 11 1 8 -4 -4 -6 1 -18 11 -27 16 -16 16 -16 9 7 -6 21 -5
23 6 13 17 -17 37 -17 21 -1 -16 16 -15 25 2 31 10 4 13 1 9 -9 -8 -21 20 -17
34 4 10 16 30 20 154 25 78 4 145 9 148 12 3 4 -1 11 -9 16 -12 8 -10 10 10 8
41 -2 52 0 45 11 -4 6 10 9 34 8 23 -1 43 1 45 3 13 12 -15 30 -55 35 -60 9
-953 12 -1059 4z m1100 -24 c0 -3 -4 -8 -10 -11 -5 -3 -10 -1 -10 4 0 6 5 11
10 11 6 0 10 -2 10 -4z"/>
<path d="M2716 8165 c-9 -26 -7 -32 5 -12 6 10 9 21 6 23 -2 3 -7 -2 -11 -11z"/>
<path d="M7331 8114 c0 -11 3 -14 6 -6 3 7 2 16 -1 19 -3 4 -6 -2 -5 -13z"/>
<path d="M5913 8040 c0 -22 4 -37 8 -34 5 3 9 12 9 20 0 8 5 14 10 14 16 0 11
27 -6 34 -9 3 -17 6 -18 6 -2 0 -3 -18 -3 -40z"/>
<path d="M7280 7981 c-22 -45 -22 -55 1 -46 21 8 40 55 30 73 -7 12 -13 6 -31
-27z"/>
<path d="M2390 7959 c0 -5 5 -7 10 -4 6 3 10 8 10 11 0 2 -4 4 -10 4 -5 0 -10
-5 -10 -11z"/>
<path d="M5981 7953 c1 -10 -1 -26 -6 -36 -11 -26 4 -35 21 -13 19 27 18 66
-2 66 -9 0 -14 -7 -13 -17z"/>
<path d="M5283 7940 c-12 -5 -27 -18 -33 -30 -16 -30 -50 -235 -50 -303 l0
-59 40 -15 c48 -19 57 -43 43 -113 -7 -35 -7 -51 1 -54 7 -3 6 -5 -2 -5 -10
-1 -10 -4 0 -15 18 -20 30 -9 17 15 -6 12 -8 23 -5 26 3 3 8 -2 12 -11 3 -9
11 -16 16 -16 6 0 5 6 -2 15 -14 16 -6 35 16 35 17 0 18 11 2 30 -7 8 -3 6 10
-5 12 -10 18 -21 13 -25 -12 -7 -1 -24 17 -28 10 -2 12 37 11 185 -2 269 -9
349 -34 367 -23 17 -40 19 -72 6z"/>
<path d="M4975 7928 c-2 -7 -6 -37 -7 -67 -3 -60 -23 -80 -34 -34 -22 99 -25
104 -47 101 -28 -4 -34 -54 -16 -157 10 -61 19 -81 50 -117 48 -55 52 -82 30
-174 -18 -74 -18 -105 0 -94 5 3 7 10 4 15 -4 5 3 9 15 9 12 0 18 4 15 10 -3
6 1 7 9 4 9 -4 16 -1 16 6 0 6 14 0 31 -14 55 -47 59 -37 29 69 -22 77 -26
130 -9 140 6 4 24 25 40 47 27 38 29 48 29 129 0 107 -11 142 -43 137 -20 -3
-22 -9 -25 -73 -1 -38 -5 -77 -8 -85 -10 -27 -34 20 -34 66 0 68 -30 123 -45
82z"/>
<path d="M8614 7925 c-7 -17 171 -312 198 -329 14 -8 22 -6 39 11 20 20 21 24
8 55 -19 48 -127 229 -152 256 -24 26 -84 31 -93 7z"/>
<path d="M7357 7879 c-8 -28 -3 -34 11 -16 6 7 7 19 3 26 -6 9 -10 6 -14 -10z"/>
<path d="M9560 7861 c0 -6 5 -13 10 -16 6 -3 10 1 10 9 0 9 -4 16 -10 16 -5 0
-10 -4 -10 -9z"/>
<path d="M6443 7827 c-6 -22 -9 -45 -6 -53 4 -10 -2 -17 -16 -21 -22 -6 -30
-33 -8 -33 22 0 54 72 48 110 l-6 35 -12 -38z"/>
<path d="M7621 7844 c-41 -12 -81 -39 -81 -54 0 -4 10 -10 22 -13 17 -5 19 -9
9 -21 -6 -8 -8 -16 -3 -18 4 -1 18 -22 30 -46 12 -24 18 -41 13 -38 -5 3 -11
-1 -15 -9 -13 -34 53 4 98 56 83 97 42 177 -73 143z m-21 -49 c0 -12 -19 -12
-23 0 -4 9 -1 12 9 8 7 -3 14 -7 14 -8z m30 -65 c6 -11 8 -20 6 -20 -3 0 -10
9 -16 20 -6 11 -8 20 -6 20 3 0 10 -9 16 -20z m-6 -28 c3 -5 -1 -9 -9 -9 -8 0
-15 4 -15 9 0 4 4 8 9 8 6 0 12 -4 15 -8z"/>
<path d="M6044 7825 c4 -16 12 -34 18 -40 7 -7 8 -1 4 20 -4 17 -12 35 -18 40
-7 7 -8 1 -4 -20z"/>
<path d="M8426 7835 c-10 -10 -13 -25 -10 -43 5 -25 -1 -32 -73 -79 -43 -29
-103 -74 -133 -101 l-55 -50 19 -54 c20 -59 16 -77 -23 -112 -12 -11 -21 -26
-21 -34 0 -16 22 -13 78 9 30 13 34 12 58 -14 13 -15 35 -27 47 -27 30 0 137
52 219 107 61 40 71 44 86 31 21 -18 52 -12 52 9 0 18 -118 237 -169 312 -41
62 -52 69 -75 46z m62 -135 c28 -30 82 -139 82 -166 0 -17 -14 -33 -52 -59
-29 -19 -58 -35 -65 -35 -17 0 -79 79 -102 131 -24 53 -18 68 53 117 57 38 59
38 84 12z"/>
<path d="M8567 7823 c-15 -14 -5 -48 33 -112 49 -83 77 -113 98 -109 28 6 17
49 -38 141 -48 82 -72 102 -93 80z"/>
<path d="M7322 7798 c-14 -14 -16 -35 -3 -42 5 -3 11 8 13 24 3 17 4 30 3 30
0 0 -6 -5 -13 -12z"/>
<path d="M9650 7766 c0 -8 5 -18 10 -21 6 -3 10 3 10 14 0 12 -4 21 -10 21 -5
0 -10 -6 -10 -14z"/>
<path d="M4250 7706 c0 -9 5 -16 10 -16 6 0 10 4 10 9 0 6 -4 13 -10 16 -5 3
-10 -1 -10 -9z"/>
<path d="M6040 7658 c-13 -28 -6 -78 10 -78 10 0 30 41 30 59 0 4 -6 16 -14
26 -14 19 -15 19 -26 -7z"/>
<path d="M3434 7644 c-7 -3 -10 -14 -7 -25 4 -15 0 -22 -15 -26 -18 -4 -19 -8
-9 -25 10 -16 9 -21 -5 -29 -10 -6 -18 -17 -18 -25 0 -23 -41 -143 -51 -150
-15 -9 -10 -34 6 -34 9 0 28 11 43 25 22 21 28 23 30 9 2 -8 -4 -24 -14 -35
-23 -26 -11 -36 20 -15 32 20 56 21 56 1 0 -8 7 -15 15 -15 8 0 15 5 15 11 0
7 10 9 25 5 20 -5 23 -3 18 10 -5 14 -2 16 20 10 75 -18 80 -23 75 -71 -5 -40
-3 -45 14 -45 10 0 17 -4 13 -9 -3 -5 -1 -12 5 -16 11 -7 13 4 10 47 -2 31 26
78 46 78 8 0 14 -4 14 -10 0 -5 39 11 88 36 104 55 234 104 276 105 64 1 -7
18 -79 18 -74 1 -111 -6 -187 -35 -44 -18 -49 -17 -105 0 -68 21 -93 40 -93
73 0 12 -5 23 -12 23 -6 0 -35 18 -64 40 -29 22 -60 40 -69 40 -8 0 -15 9 -15
20 0 19 -19 25 -46 14z m619 -191 c-7 -2 -21 -2 -30 0 -10 3 -4 5 12 5 17 0
24 -2 18 -5z"/>
<path d="M7566 7617 c3 -10 9 -15 12 -12 3 3 0 11 -7 18 -10 9 -11 8 -5 -6z"/>
<path d="M2485 7609 c-10 -15 3 -25 16 -12 7 7 7 13 1 17 -6 3 -14 1 -17 -5z"/>
<path d="M9631 7604 c0 -11 3 -14 6 -6 3 7 2 16 -1 19 -3 4 -6 -2 -5 -13z"/>
<path d="M6430 7445 c0 -8 5 -15 10 -15 6 0 10 7 10 15 0 8 -4 15 -10 15 -5 0
-10 -7 -10 -15z"/>
<path d="M11461 7444 c0 -11 3 -14 6 -6 3 7 2 16 -1 19 -3 4 -6 -2 -5 -13z"/>
<path d="M2440 7439 c0 -5 4 -8 9 -5 5 4 12 0 14 -6 3 -8 6 -6 6 5 1 9 -6 17
-14 17 -8 0 -15 -5 -15 -11z"/>
<path d="M9576 7423 c5 -5 12 -12 16 -18 4 -6 8 -2 8 8 0 9 -7 17 -17 17 -9 0
-12 -3 -7 -7z"/>
<path d="M2450 7394 c0 -9 -5 -13 -12 -9 -7 4 -4 -1 6 -9 11 -9 25 -16 30 -15
6 0 5 3 -1 6 -7 2 -13 11 -13 19 0 9 5 12 12 8 7 -4 8 -3 4 4 -10 17 -26 15
-26 -4z"/>
<path d="M9585 7380 c3 -5 8 -10 11 -10 2 0 4 5 4 10 0 6 -5 10 -11 10 -5 0
-7 -4 -4 -10z"/>
<path d="M5065 7370 c-3 -5 1 -10 9 -10 9 0 16 5 16 10 0 6 -4 10 -9 10 -6 0
-13 -4 -16 -10z"/>
<path d="M9574 7349 c-3 -6 -2 -15 4 -21 6 -6 11 -2 15 11 5 22 -7 29 -19 10z"/>
<path d="M5060 7339 c0 -5 5 -7 10 -4 6 3 10 8 10 11 0 2 -4 4 -10 4 -5 0 -10
-5 -10 -11z"/>
<path d="M9550 7268 c0 -38 1 -34 -15 -64 -9 -18 -11 -33 -5 -44 5 -10 6 -21
2 -25 -4 -5 -2 -5 5 -1 6 3 11 20 11 37 -1 17 4 34 10 38 6 4 14 25 18 47 5
33 3 41 -10 41 -11 0 -16 -9 -16 -29z"/>
<path d="M5450 7146 c0 -5 116 -90 207 -150 43 -29 87 -66 98 -84 11 -17 25
-32 30 -32 15 -1 55 -37 55 -49 0 -16 -15 -14 -30 4 -7 8 -17 15 -23 15 -5 0
-24 11 -41 23 -33 25 -86 43 -86 29 0 -37 110 -105 192 -117 40 -6 57 -3 120
26 72 33 75 34 201 32 70 -1 127 2 127 5 0 4 -7 39 -16 77 -8 39 -18 81 -20
94 -5 22 -6 23 -24 6 -11 -10 -20 -25 -20 -33 0 -10 -7 -13 -20 -9 -12 3 -33
-1 -48 -9 -15 -8 -35 -14 -45 -14 -10 0 -62 -18 -114 -40 -53 -22 -100 -40
-105 -40 -4 0 -17 9 -28 20 -26 26 -161 120 -173 120 -10 0 -150 80 -157 90
-10 15 -80 46 -80 36z"/>
<path d="M6241 7114 c0 -11 3 -14 6 -6 3 7 2 16 -1 19 -3 4 -6 -2 -5 -13z"/>
<path d="M9510 7091 c0 -17 4 -31 8 -31 11 0 13 48 2 55 -6 4 -10 -7 -10 -24z"/>
<path d="M9495 7002 c-12 -49 -17 -189 -5 -170 5 9 12 51 15 93 3 43 8 81 10
86 3 4 1 10 -4 13 -5 3 -12 -6 -16 -22z"/>
<path d="M8778 6779 c-10 -17 -18 -39 -18 -49 0 -11 -7 -17 -17 -16 -12 1 -19
-7 -21 -22 -2 -15 -8 -22 -18 -18 -7 3 -18 -3 -24 -14 -6 -11 -24 -27 -41 -36
-19 -9 -29 -21 -25 -29 3 -8 1 -17 -5 -20 -5 -4 -9 -12 -8 -18 6 -52 -22 -81
-36 -37 -3 11 -10 20 -15 20 -14 0 -23 -41 -11 -53 6 -6 11 -34 11 -62 0 -28
5 -56 11 -62 15 -15 2 -53 -18 -53 -11 0 -14 -6 -9 -25 6 -24 4 -25 -35 -25
-40 0 -41 -1 -26 -18 31 -34 14 -63 -23 -40 -18 12 -23 10 -43 -16 -19 -23
-33 -29 -80 -35 -32 -3 -57 -10 -57 -16 0 -5 4 -10 9 -10 26 0 20 -16 -8 -21
-18 -4 -35 -13 -38 -20 -3 -8 -16 -14 -28 -14 -13 0 -27 -5 -30 -11 -5 -7 -14
-4 -27 8 -19 17 -20 17 -32 0 -11 -14 -18 -15 -45 -6 -37 13 -63 6 -55 -16 5
-11 -1 -15 -20 -15 -19 0 -26 -5 -26 -19 0 -14 -5 -18 -20 -14 -13 4 -22 -1
-26 -13 -11 -36 -21 -49 -40 -49 -12 0 -19 -7 -19 -20 0 -14 -9 -22 -30 -26
-28 -6 -29 -10 -5 -13 21 -2 4 -21 -20 -21 -18 0 -25 -5 -25 -20 0 -32 -14
-48 -31 -34 -13 11 -19 2 -15 -23 0 -5 -4 -8 -9 -8 -6 0 -10 4 -10 9 0 11 -65
9 -76 -2 -4 -3 -1 -13 5 -21 20 -24 -22 -87 -43 -66 -6 6 -17 10 -25 10 -12 0
-12 -3 -3 -12 16 -16 15 -48 -1 -48 -7 0 -18 5 -25 12 -15 15 -29 2 -34 -32
-2 -20 -8 -25 -31 -23 -15 1 -27 -2 -27 -8 0 -5 5 -9 10 -9 6 0 10 -7 10 -15
0 -19 -51 -45 -91 -45 -23 0 -30 -4 -25 -15 3 -8 -5 -26 -17 -39 -12 -13 -28
-32 -35 -41 -10 -11 -17 -13 -26 -6 -14 12 -36 -4 -36 -26 0 -7 -4 -13 -10
-13 -5 0 -10 6 -10 14 0 15 -24 28 -34 19 -3 -3 2 -11 11 -18 11 -8 14 -18 9
-31 -7 -19 -8 -19 -22 0 -14 20 -14 20 -28 0 -13 -17 -15 -17 -21 -2 -4 9 -14
17 -23 16 -9 0 -27 3 -39 7 -29 9 -31 -10 -3 -27 34 -21 22 -31 -12 -11 -25
14 -42 17 -68 11 -19 -4 -43 -5 -52 -2 -10 3 -18 0 -18 -7 0 -6 -8 -18 -17
-25 -10 -7 -16 -14 -13 -16 3 -2 23 -13 45 -25 22 -12 40 -28 40 -35 0 -8 12
-12 30 -11 17 0 24 -1 18 -4 -18 -7 -16 -23 2 -23 22 0 69 -26 101 -55 15 -14
32 -25 39 -25 15 0 55 -55 55 -76 0 -15 -66 -133 -80 -144 -10 -7 -30 -47 -30
-58 0 -13 118 -65 133 -59 15 6 119 -44 121 -58 0 -6 -9 -11 -21 -13 -15 -2
-23 -10 -23 -24 0 -15 -5 -19 -20 -15 -15 4 -20 0 -20 -14 0 -14 7 -19 25 -19
14 0 25 5 25 10 0 6 8 13 18 17 9 3 40 26 69 50 31 26 54 39 58 33 11 -18 30
5 45 52 8 24 20 51 29 61 13 16 13 21 -2 53 -9 19 -17 39 -17 45 0 6 -7 17
-15 25 -13 14 -13 19 0 44 15 28 11 59 -8 72 -16 10 20 75 59 105 29 21 33 29
22 37 -14 12 -13 80 2 71 5 -3 11 3 15 13 10 33 73 84 95 77 16 -5 20 -2 20
19 0 14 5 28 10 31 6 3 10 15 10 26 0 10 7 19 15 19 25 0 82 59 89 92 4 23 10
29 22 24 10 -4 25 3 40 19 13 14 32 25 42 25 11 0 25 7 32 15 7 8 20 15 29 15
23 0 111 57 111 71 0 6 7 9 15 6 8 -4 17 -2 20 3 4 6 19 10 34 10 46 0 110
-85 94 -125 -3 -9 -22 -24 -42 -35 -20 -10 -109 -90 -198 -177 -190 -186 -198
-200 -187 -318 3 -44 10 -91 15 -103 20 -53 32 -345 17 -426 l-7 -38 30 45
c16 25 41 52 54 61 14 9 25 23 25 31 0 8 7 15 15 15 8 0 15 4 15 8 0 9 45 59
152 169 l70 73 -1 75 c-1 41 3 75 8 75 5 0 23 -37 41 -82 41 -107 59 -149 72
-172 32 -59 106 -248 102 -261 -4 -9 3 -19 20 -26 14 -7 34 -31 45 -55 24 -50
33 -130 14 -127 -14 3 -1 -33 24 -72 7 -11 13 -27 13 -37 0 -15 9 -18 61 -18
37 0 58 4 54 10 -3 6 1 10 9 10 9 0 16 -4 16 -10 0 -6 99 -10 276 -10 l275 0
-20 26 c-12 15 -21 33 -21 40 0 8 -7 14 -15 14 -8 0 -15 5 -15 11 0 6 -9 22
-20 36 -15 19 -19 35 -14 58 5 27 1 36 -23 57 -15 13 -33 33 -39 44 -6 10 -22
20 -36 22 -44 5 -61 34 -54 87 4 25 12 45 18 45 7 0 8 13 3 38 -12 60 -9 294
5 351 7 29 19 55 26 58 8 3 13 17 12 32 -1 14 4 36 10 48 7 12 12 33 12 47 0
14 4 26 9 26 11 0 23 57 28 135 5 92 14 149 26 163 7 9 6 17 -4 27 -13 13 -19
12 -52 -10 -27 -19 -52 -26 -95 -28 -65 -3 -106 -24 -118 -59 -4 -13 -15 -33
-25 -46 -10 -13 -21 -44 -25 -70 -4 -26 -13 -59 -20 -74 -8 -15 -14 -36 -14
-48 0 -11 -5 -20 -10 -20 -17 0 -24 31 -12 51 7 10 12 39 12 64 0 38 -3 45
-20 45 -11 0 -20 7 -20 15 0 8 5 15 10 15 18 0 11 18 -20 48 -20 20 -30 40
-30 60 0 17 -3 37 -6 46 -5 13 -9 12 -26 -9 -22 -28 -38 -32 -38 -10 0 9 -11
27 -25 40 -17 18 -20 25 -9 25 12 0 12 4 -3 24 -10 13 -21 22 -25 20 -18 -11
-48 22 -48 53 0 18 -4 33 -10 33 -5 0 -10 4 -10 10 0 5 7 7 15 4 19 -8 31 22
16 40 -8 10 -5 16 14 26 14 7 25 17 25 22 0 4 8 8 19 8 19 0 54 59 54 90 0 8
9 21 20 29 14 10 18 21 13 42 -3 16 -2 29 3 29 5 0 11 9 14 20 3 11 13 20 22
20 12 0 15 5 10 20 -4 12 -2 27 5 35 9 11 16 11 40 -2 33 -16 36 -23 18 -41
-9 -9 -9 -12 0 -12 7 0 12 -7 12 -15 0 -8 5 -15 10 -15 6 0 10 6 10 14 0 8 7
16 14 19 11 4 13 16 9 41 -5 33 -4 36 20 36 44 0 57 10 57 44 0 39 17 60 35
43 9 -9 9 -16 1 -29 -8 -14 -6 -26 8 -53 11 -19 22 -35 26 -35 3 0 17 14 29
31 20 27 22 34 11 54 -7 13 -10 34 -7 46 3 12 1 31 -5 42 -8 16 -7 23 6 32 20
15 20 28 -1 72 -13 27 -13 37 -4 43 15 9 -2 46 -31 68 -10 7 -18 22 -18 32 0
10 -4 22 -10 25 -5 3 -10 13 -10 21 0 9 -12 29 -27 45 -22 23 -34 28 -55 23
-27 -5 -39 8 -18 21 17 10 2 24 -20 18 -11 -3 -20 -1 -20 5 0 12 -28 42 -38
42 -4 0 -15 -14 -24 -31z m129 -111 c-3 -8 -6 -5 -6 6 -1 11 2 17 5 13 3 -3 4
-12 1 -19z m-71 -45 c-10 -10 -19 5 -10 18 6 11 8 11 12 0 2 -7 1 -15 -2 -18z
m24 -29 c0 -8 -16 -22 -35 -30 -40 -17 -55 -18 -55 -4 0 6 11 10 23 10 13 0
32 9 42 20 22 24 25 25 25 4z m19 -46 c0 -7 -8 -31 -18 -53 -17 -38 -18 -39
-25 -17 -5 16 -3 29 8 41 9 10 16 23 16 29 0 7 5 12 10 12 6 0 10 -6 9 -12z
m-22 -130 c-3 -7 -5 -2 -5 12 0 14 2 19 5 13 2 -7 2 -19 0 -25z m-167 -8 c0
-5 -4 -10 -10 -10 -5 0 -10 5 -10 10 0 6 5 10 10 10 6 0 10 -4 10 -10z m345
-170 c-5 -8 -11 -8 -17 -2 -6 6 -7 16 -3 22 5 8 11 8 17 2 6 -6 7 -16 3 -22z
m-1540 -850 c10 -16 -16 -43 -28 -31 -11 11 -2 41 12 41 5 0 13 -5 16 -10z
m35 -35 c0 -8 -4 -15 -10 -15 -5 0 -10 7 -10 15 0 8 5 15 10 15 6 0 10 -7 10
-15z m1226 -42 c-4 -42 -19 -51 -24 -15 -4 28 4 52 17 52 6 0 9 -17 7 -37z
m34 -77 c7 -14 10 -35 6 -49 -3 -14 0 -32 9 -43 8 -10 15 -29 15 -42 0 -13 4
-21 9 -18 5 3 11 -3 14 -14 4 -16 0 -20 -18 -20 -30 0 -33 5 -40 74 -3 32 -12
64 -20 73 -19 18 -20 63 -2 63 8 0 19 -11 27 -24z m40 -239 c0 -18 -2 -19 -10
-7 -13 20 -13 43 0 35 6 -3 10 -16 10 -28z m40 -151 c0 -27 -15 -42 -25 -26
-8 13 3 50 16 50 5 0 9 -11 9 -24z m-196 -507 c30 -23 34 -39 9 -39 -20 0 -53
28 -53 47 0 18 13 16 44 -8z"/>
<path d="M6660 6766 c0 -9 5 -16 10 -16 6 0 10 4 10 9 0 6 -4 13 -10 16 -5 3
-10 -1 -10 -9z"/>
<path d="M9510 6735 c0 -8 7 -15 15 -15 9 0 12 6 9 15 -4 8 -10 15 -15 15 -5
0 -9 -7 -9 -15z"/>
<path d="M2780 6645 c0 -5 5 -17 10 -25 5 -8 10 -10 10 -5 0 6 -5 17 -10 25
-5 8 -10 11 -10 5z"/>
<path d="M9333 6613 c-18 -7 -16 -20 7 -43 26 -26 30 -25 24 8 -6 32 -14 41
-31 35z"/>
<path d="M9343 6525 c-3 -9 -3 -18 -1 -21 3 -3 8 4 11 16 6 23 -1 27 -10 5z"/>
<path d="M9067 6503 c-13 -12 -7 -33 13 -50 11 -10 20 -23 20 -30 0 -7 5 -13
10 -13 13 0 13 0 -10 54 -22 49 -23 50 -33 39z"/>
<path d="M4715 6481 c-3 -5 -1 -13 5 -16 6 -4 8 -14 5 -24 -3 -11 4 -26 20
-41 14 -13 25 -29 25 -36 0 -12 46 -30 64 -25 15 3 79 -32 98 -54 9 -11 20
-32 23 -46 3 -14 17 -32 31 -40 22 -12 24 -17 19 -53 l-7 -41 37 58 c20 31 41
57 46 57 18 0 8 22 -48 98 -40 54 -59 72 -61 60 -4 -19 -22 -25 -22 -8 0 13
-71 80 -85 80 -7 0 -18 7 -25 15 -7 8 -25 15 -41 15 -19 0 -29 -5 -29 -15 0
-22 -17 -18 -23 5 -5 21 -22 27 -32 11z"/>
<path d="M9595 6450 c-3 -5 -1 -10 4 -10 6 0 11 5 11 10 0 6 -2 10 -4 10 -3 0
-8 -4 -11 -10z"/>
<path d="M4665 6400 c-3 -5 -1 -10 4 -10 6 0 11 5 11 10 0 6 -2 10 -4 10 -3 0
-8 -4 -11 -10z"/>
<path d="M9070 6386 c0 -7 7 -19 15 -26 9 -7 14 -19 11 -27 -3 -7 1 -13 9 -13
8 0 15 3 15 8 0 4 3 17 6 30 5 16 2 22 -10 22 -9 0 -16 5 -16 10 0 6 -7 10
-15 10 -8 0 -15 -6 -15 -14z"/>
<path d="M9340 6370 c0 -5 5 -10 10 -10 6 0 10 5 10 10 0 6 -4 10 -10 10 -5 0
-10 -4 -10 -10z"/>
<path d="M9343 6284 c0 -23 1 -24 9 -10 7 12 7 21 0 28 -6 6 -9 0 -9 -18z"/>
<path d="M3270 6230 c0 -13 18 -22 24 -11 3 5 -1 11 -9 15 -8 3 -15 1 -15 -4z"/>
<path d="M9763 6043 c-18 -7 -16 -23 2 -23 8 0 15 7 15 15 0 8 -1 15 -2 14 -2
0 -9 -3 -15 -6z"/>
<path d="M7862 5981 c2 -7 7 -12 11 -12 12 1 9 15 -3 20 -7 2 -11 -2 -8 -8z"/>
<path d="M4255 5840 c-3 -6 1 -7 9 -4 18 7 21 14 7 14 -6 0 -13 -4 -16 -10z"/>
<path d="M9865 5740 c3 -5 8 -10 11 -10 2 0 4 5 4 10 0 6 -5 10 -11 10 -5 0
-7 -4 -4 -10z"/>
<path d="M5516 5700 c-28 -35 -25 -60 9 -60 29 0 50 24 40 47 -5 10 -7 24 -6
31 3 21 -16 13 -43 -18z"/>
<path d="M9875 5640 c-3 -5 1 -10 10 -10 9 0 13 5 10 10 -3 6 -8 10 -10 10 -2
0 -7 -4 -10 -10z"/>
<path d="M7420 5560 c0 -5 5 -10 10 -10 6 0 10 5 10 10 0 6 -4 10 -10 10 -5 0
-10 -4 -10 -10z"/>
<path d="M9930 5514 c0 -8 5 -12 10 -9 6 3 10 10 10 16 0 5 -4 9 -10 9 -5 0
-10 -7 -10 -16z"/>
<path d="M2080 5455 c1 -26 2 -28 11 -12 8 14 8 22 0 30 -8 8 -11 3 -11 -18z"/>
<path d="M2000 5449 c0 -5 5 -7 10 -4 6 3 10 8 10 11 0 2 -4 4 -10 4 -5 0 -10
-5 -10 -11z"/>
<path d="M9891 5428 c0 -9 -5 -18 -11 -20 -6 -2 -6 -9 0 -18 13 -21 22 -7 17
27 -2 15 -5 21 -6 11z"/>
<path d="M9898 5358 c-9 -23 2 -40 17 -28 8 6 11 18 8 26 -6 17 -19 18 -25 2z"/>
<path d="M1975 5330 c-19 -8 -19 -9 3 -9 12 -1 22 4 22 9 0 6 -1 10 -2 9 -2 0
-12 -4 -23 -9z"/>
<path d="M9984 5293 c6 -21 -9 -51 -21 -40 -4 5 -1 12 7 18 13 8 13 10 0 18
-18 12 -33 3 -26 -15 4 -9 -3 -18 -16 -23 -19 -7 -19 -8 -4 -14 10 -4 22 -4
27 -1 6 3 19 -6 30 -20 19 -24 48 -28 33 -5 -3 5 -10 6 -16 3 -7 -4 -8 -2 -4
4 4 7 14 12 22 12 8 0 14 5 14 11 0 6 -8 8 -17 5 -11 -4 -7 3 9 18 30 27 25
38 -20 44 -19 2 -22 -1 -18 -15z"/>
<path d="M9890 5280 c-13 -9 -13 -10 0 -10 8 0 22 5 30 10 13 9 13 10 0 10 -8
0 -22 -5 -30 -10z"/>
<path d="M2056 5261 c-4 -5 -2 -12 3 -15 5 -4 12 -2 15 3 4 5 2 12 -3 15 -5 4
-12 2 -15 -3z"/>
<path d="M2081 5201 c-7 -5 -9 -11 -5 -14 5 -3 15 1 22 9 14 16 5 18 -17 5z"/>
<path d="M9827 5178 c2 -5 13 -8 24 -8 10 0 19 3 19 8 0 4 -11 7 -24 7 -13 0
-22 -3 -19 -7z"/>
<path d="M9965 5180 c-3 -5 -1 -10 4 -10 6 0 11 5 11 10 0 6 -2 10 -4 10 -3 0
-8 -4 -11 -10z"/>
<path d="M2010 5150 c-12 -8 -10 -10 8 -10 13 0 20 4 17 10 -7 12 -6 12 -25 0z"/>
<path d="M7204 4655 l1 -54 25 25 c23 23 24 26 8 35 -10 6 -18 16 -18 24 0 8
-4 16 -9 19 -5 3 -8 -19 -7 -49z"/>
<path d="M7120 4570 c0 -5 5 -10 10 -10 6 0 10 5 10 10 0 6 -4 10 -10 10 -5 0
-10 -4 -10 -10z"/>
<path d="M5026 4351 c-3 -5 1 -12 10 -15 12 -4 14 -14 9 -36 -5 -23 -3 -30 8
-30 17 0 27 52 15 74 -10 17 -34 21 -42 7z"/>
<path d="M4993 4124 c-49 -11 -103 -103 -103 -175 0 -14 -9 -34 -21 -45 -26
-24 -49 -67 -49 -93 0 -23 27 -41 63 -41 24 0 25 -2 15 -33 -8 -28 -7 -42 10
-80 36 -81 127 -118 294 -118 168 -1 262 38 316 130 25 43 27 54 28 176 1 72
5 144 9 161 6 28 3 33 -28 53 -43 26 -72 27 -139 0 -29 -12 -77 -24 -106 -28
-50 -7 -54 -6 -67 18 -29 57 -61 75 -133 77 -37 1 -77 0 -89 -2z m131 -44 c14
-5 32 -23 41 -39 11 -22 25 -32 50 -37 21 -4 44 -17 56 -33 12 -15 34 -28 52
-31 65 -10 75 -99 14 -128 -14 -7 -54 -18 -87 -24 -76 -13 -92 -3 -88 56 3 38
1 41 -23 44 -20 2 -28 -2 -33 -20 -11 -44 -6 -77 18 -105 23 -26 30 -28 93
-27 79 2 175 34 198 67 19 27 19 78 0 122 -10 26 -22 37 -45 41 -41 9 -47 22
-13 29 15 4 45 14 66 23 47 19 74 8 69 -29 -2 -13 -3 -70 -2 -126 1 -85 -2
-108 -20 -142 -40 -79 -138 -121 -283 -121 -105 0 -158 14 -198 51 -45 42 -33
114 25 153 52 34 24 113 -46 130 -24 5 -28 11 -28 42 0 19 5 44 11 55 25 48
111 73 173 49z m-152 -197 c36 -32 18 -57 -49 -68 -57 -9 -68 13 -27 56 32 33
50 36 76 12z"/>
<path d="M4985 3989 c-4 -6 -3 -15 3 -21 6 -6 11 -4 15 6 7 18 -9 31 -18 15z"/>
<path d="M5124 3966 c-9 -23 9 -41 57 -55 31 -9 44 -10 55 0 33 27 5 53 -73
66 -24 4 -34 1 -39 -11z"/>
<path d="M5047 3963 c-12 -11 -8 -23 8 -23 8 0 15 7 15 15 0 16 -12 20 -23 8z"/>
<path d="M7726 4092 c-2 -4 5 -32 15 -62 11 -30 23 -91 25 -135 l5 -80 -30 53
c-31 55 -84 121 -109 136 -27 16 -33 -8 -21 -88 6 -42 9 -79 7 -81 -3 -3 -24
13 -47 36 -56 53 -87 51 -83 -3 3 -43 2 -44 -38 -23 -44 23 -48 0 -8 -43 19
-21 42 -50 52 -65 24 -39 36 -25 36 43 0 45 3 58 13 54 18 -6 47 -58 62 -108
9 -29 18 -41 31 -41 17 0 20 11 24 105 l5 105 29 -60 c21 -45 29 -81 33 -140
3 -44 10 -86 16 -93 48 -61 89 249 51 393 -21 82 -51 125 -68 97z"/>
<path d="M4847 4083 c-11 -10 -8 -41 4 -48 13 -9 16 -6 24 28 5 20 3 27 -7 27
-8 0 -18 -3 -21 -7z"/>
<path d="M6168 4075 c-74 -20 -172 -70 -201 -101 -49 -52 -47 -105 11 -261 51
-137 90 -172 180 -159 136 19 199 19 270 -3 123 -37 135 -32 188 83 81 177 95
269 50 324 -83 97 -345 159 -498 117z m305 -55 c87 -27 167 -98 167 -148 0
-30 -83 -258 -100 -276 -6 -5 -42 -2 -91 9 -93 20 -210 21 -282 3 -63 -16 -73
-9 -120 87 -44 91 -67 170 -60 208 10 54 114 115 233 137 68 13 177 5 253 -20z"/>
<path d="M6316 4002 c-8 -13 -11 -160 -3 -168 3 -4 13 -4 22 0 14 5 16 17 10
84 -7 75 -17 104 -29 84z"/>
<path d="M6163 3949 c-7 -7 -7 -24 -1 -52 16 -73 56 -71 43 1 -7 46 -25 68
-42 51z"/>
<path d="M6432 3917 c-17 -46 -15 -67 6 -67 18 0 48 73 37 91 -12 19 -31 8
-43 -24z"/>
<path d="M6043 3909 c-8 -8 -5 -26 10 -63 25 -61 35 -76 53 -76 21 0 17 35
-11 90 -28 55 -37 64 -52 49z"/>
<path d="M6524 3855 c-36 -53 -40 -85 -10 -85 18 0 79 107 72 126 -10 25 -25
15 -62 -41z"/>
<path d="M6234 3823 c-4 -32 -7 -83 -8 -113 l-1 -55 45 3 c24 2 46 4 47 6 7 7
-55 210 -65 214 -6 2 -13 -21 -18 -55z"/>
<path d="M8285 4048 c-88 -31 -134 -102 -135 -206 0 -77 19 -121 72 -166 67
-58 182 -72 245 -30 23 15 26 13 71 -35 58 -61 140 -91 202 -72 99 29 159 110
160 211 0 127 -85 220 -202 220 -32 0 -75 -7 -95 -15 l-36 -15 -41 45 c-23 24
-58 51 -79 60 -41 17 -117 19 -162 3z m155 -50 c36 -18 50 -34 70 -75 14 -29
31 -55 37 -58 7 -2 23 7 35 20 69 73 197 54 248 -37 18 -33 21 -51 18 -104 -3
-57 -8 -68 -38 -99 -45 -46 -96 -62 -149 -47 -51 16 -88 46 -109 90 -21 45
-42 50 -82 21 -45 -34 -137 -38 -184 -9 -80 49 -106 139 -64 219 26 51 61 79
109 91 53 12 62 11 109 -12z"/>
<path d="M8304 3925 c-9 -22 5 -67 19 -62 7 2 13 20 15 40 2 28 0 37 -13 37
-8 0 -18 -7 -21 -15z"/>
<path d="M8425 3918 c-13 -37 -9 -72 8 -76 14 -3 17 4 17 42 0 43 -15 62 -25
34z"/>
<path d="M8244 3827 c-9 -24 15 -67 48 -87 22 -13 51 -20 84 -20 43 0 57 5 83
29 17 16 31 34 31 39 0 24 -23 23 -49 -2 -49 -47 -147 -27 -166 34 -7 23 -23
26 -31 7z"/>
<path d="M8570 3830 c0 -5 13 -24 29 -42 16 -19 31 -47 33 -63 4 -40 27 -44
34 -5 5 22 11 29 21 26 8 -4 26 -6 39 -6 14 0 24 -5 23 -12 -3 -27 2 -38 16
-38 10 0 15 10 15 28 0 16 9 37 20 47 22 20 27 45 8 45 -7 0 -33 -7 -57 -16
-50 -17 -96 -7 -126 26 -19 21 -55 27 -55 10z"/>
<path d="M7186 3944 c-97 -35 -142 -106 -134 -209 9 -107 103 -191 227 -202
48 -5 65 -1 108 20 46 24 103 77 103 97 0 13 -23 27 -58 33 -60 12 -139 37
-158 52 -18 13 -14 19 63 97 48 48 79 88 75 94 -22 33 -155 44 -226 18z"/>
<path d="M9278 3366 c-10 -7 -18 -19 -18 -25 0 -7 -4 -9 -10 -6 -12 7 -47 -10
-80 -41 -14 -13 -34 -23 -45 -23 -11 0 -47 -3 -80 -6 -33 -3 -112 -8 -175 -11
-156 -8 -193 -11 -205 -13 -5 -2 -59 -2 -119 -2 -71 1 -112 -3 -117 -10 -5 -8
-17 -8 -43 1 -23 7 -41 8 -49 3 -7 -5 -37 -8 -67 -7 -30 1 -61 -2 -68 -8 -9
-8 -16 -8 -24 0 -15 15 -65 16 -73 2 -4 -7 -13 -7 -26 0 -26 15 -159 2 -181
-17 -15 -13 -18 -12 -27 5 -9 18 -16 19 -43 11 -18 -5 -34 -14 -36 -19 -2 -6
-8 -10 -13 -10 -4 0 -6 7 -3 15 9 21 -26 19 -41 -2 -12 -17 -14 -17 -34 1 -25
23 -40 14 -20 -11 12 -15 12 -16 -4 -10 -10 4 -21 7 -23 7 -2 0 -4 7 -4 15 0
15 -12 20 -23 9 -3 -3 -28 -7 -56 -9 -32 -3 -61 -12 -78 -24 -37 -30 -51 -26
-22 6 13 15 16 21 6 14 -14 -11 -21 -11 -29 -3 -16 16 -28 15 -28 -3 0 -15
-29 -35 -50 -35 -7 0 -9 7 -6 15 5 13 0 15 -32 9 -20 -4 -39 -8 -41 -10 -2 -2
-13 3 -23 13 -17 15 -18 15 -18 -2 0 -11 -5 -15 -14 -12 -8 3 -17 3 -21 -1 -4
-4 -16 -7 -28 -8 -12 0 -32 -4 -44 -8 -20 -6 -23 -4 -23 20 0 26 -1 26 -18 11
-10 -10 -28 -17 -40 -17 -12 0 -22 -4 -22 -10 0 -5 7 -7 15 -4 8 4 15 1 15 -5
0 -6 -11 -11 -25 -11 -14 0 -25 3 -25 8 0 4 -17 7 -38 8 -42 1 -74 -26 -44
-38 16 -6 15 -7 0 -7 -10 -1 -18 -5 -18 -11 0 -5 -6 -10 -14 -10 -8 0 -16 -5
-18 -12 -2 -6 -10 -8 -16 -4 -20 12 -13 23 19 30 45 9 25 26 -32 26 -40 0 -49
-3 -50 -17 0 -14 -3 -12 -10 5 -10 26 -23 22 -52 -15 -24 -30 -43 -19 -22 13
8 13 11 24 6 24 -5 0 -12 -4 -16 -9 -3 -6 -30 -9 -60 -8 -59 2 -84 -16 -85
-60 0 -29 -17 -38 -37 -21 -12 9 -15 9 -9 1 4 -8 2 -13 -7 -13 -10 0 -13 -7
-10 -20 4 -14 0 -20 -12 -20 -10 0 -15 5 -12 14 4 11 1 11 -19 2 -13 -6 -24
-14 -24 -18 0 -5 -7 -8 -15 -8 -9 0 -15 9 -15 25 0 14 -4 25 -10 25 -10 0 -14
-13 -11 -41 1 -12 -8 -18 -31 -21 -37 -6 -69 10 -67 32 3 33 -2 38 -33 34 -18
-1 -41 -3 -50 -3 -10 -1 -18 -6 -18 -12 0 -6 11 -8 29 -4 24 5 29 2 34 -17 4
-12 3 -25 -1 -28 -4 -3 -7 -12 -7 -20 0 -9 -11 -15 -28 -17 -21 -1 -30 4 -37
20 -5 12 -9 16 -9 10 -1 -17 -28 -17 -34 0 -2 6 -8 8 -13 4 -5 -4 -2 -12 6
-17 19 -12 23 -47 5 -54 -8 -3 -15 -10 -15 -15 0 -6 7 -7 17 -4 11 4 14 3 9
-5 -5 -8 4 -12 28 -12 26 0 36 4 36 15 0 9 -7 15 -16 13 -10 -2 -19 3 -21 10
-7 17 23 15 41 -4 20 -20 21 -44 1 -44 -8 0 -15 -9 -15 -20 0 -15 7 -20 25
-20 16 0 25 -6 25 -15 0 -9 9 -15 25 -15 15 0 28 -7 32 -17 10 -28 46 -63 66
-63 9 0 17 -4 17 -10 0 -5 5 -10 11 -10 6 0 9 7 6 14 -4 10 -1 13 9 9 10 -4
11 -9 4 -17 -7 -9 -5 -19 5 -32 12 -15 16 -16 23 -6 7 11 11 7 16 -12 3 -14
11 -26 18 -26 6 0 30 -15 53 -34 23 -19 55 -38 70 -42 16 -4 39 -13 53 -19 13
-8 41 -11 65 -8 44 6 107 38 107 54 0 6 9 7 20 4 11 -4 20 -2 20 4 0 6 5 10
12 9 7 -2 12 2 13 9 0 16 15 29 15 14 0 -6 21 3 48 21 26 18 49 33 52 33 3 0
19 11 35 24 17 13 22 21 13 18 -10 -4 -18 -2 -18 3 0 6 4 10 9 10 5 0 26 8 47
17 22 9 46 16 55 14 9 -1 19 5 22 12 3 8 21 17 40 21 19 3 42 15 52 26 22 24
90 60 114 60 10 0 26 9 36 20 10 11 21 17 26 15 4 -3 10 -1 14 5 3 5 14 10 23
10 9 0 26 11 37 24 11 13 37 31 58 39 20 9 37 20 37 25 0 5 14 12 30 16 17 3
46 17 64 31 38 29 46 31 46 11 0 -19 25 -27 39 -13 10 9 12 9 9 -3 -2 -10 14
-18 57 -27 59 -13 79 -15 225 -32 41 -5 109 -14 150 -21 103 -16 118 -18 260
-36 196 -25 202 -26 250 -29 25 -1 68 -6 95 -11 28 -4 54 -7 59 -5 5 1 40 -3
77 -10 54 -10 74 -9 98 1 17 7 31 16 31 21 0 5 6 9 14 9 14 0 50 49 83 115 14
26 19 51 16 73 -4 24 -2 32 8 30 10 -2 14 9 15 37 3 70 4 75 17 75 12 0 27 35
40 95 3 11 8 28 12 38 8 20 -3 22 -27 3z m-1298 -166 c0 -5 -4 -10 -10 -10 -5
0 -10 5 -10 10 0 6 5 10 10 10 6 0 10 -4 10 -10z m-90 -30 c0 -5 -5 -10 -11
-10 -5 0 -7 5 -4 10 3 6 8 10 11 10 2 0 4 -4 4 -10z m-310 -10 c0 -5 -5 -10
-11 -10 -5 0 -7 5 -4 10 3 6 8 10 11 10 2 0 4 -4 4 -10z m-60 -10 c0 -5 -5
-10 -11 -10 -5 0 -7 5 -4 10 3 6 8 10 11 10 2 0 4 -4 4 -10z m-509 -52 c-9
-24 -31 -37 -31 -18 0 20 21 51 30 45 5 -3 6 -15 1 -27z m59 17 c0 -8 -4 -15
-10 -15 -5 0 -10 7 -10 15 0 8 5 15 10 15 6 0 10 -7 10 -15z m210 5 c0 -5 -5
-10 -11 -10 -5 0 -7 5 -4 10 3 6 8 10 11 10 2 0 4 -4 4 -10z m-620 -40 c0 -5
6 -7 14 -4 8 3 17 1 21 -5 7 -13 0 -13 -44 -5 -17 4 -28 10 -25 15 7 12 34 11
34 -1z m1070 0 c0 -5 -7 -10 -15 -10 -8 0 -15 5 -15 10 0 6 7 10 15 10 8 0 15
-4 15 -10z m-939 -24 c-18 -18 -23 -19 -31 -6 -12 20 -5 28 26 28 l26 0 -21
-22z m-196 -27 c-5 -7 6 -8 32 -5 21 3 32 3 25 0 -6 -3 -9 -11 -5 -17 3 -7 3
-9 -2 -5 -4 4 -16 3 -27 -3 -13 -7 -23 -7 -31 0 -8 6 -18 6 -27 1 -23 -15 -34
-12 -20 5 7 8 19 15 26 15 8 0 14 5 14 10 0 6 5 10 11 10 5 0 7 -5 4 -11z
m130 -9 c3 -5 1 -10 -5 -10 -6 0 -8 -4 -5 -10 3 -5 -1 -10 -9 -10 -9 0 -16 2
-16 4 0 2 -3 11 -6 20 -4 11 0 16 14 16 12 0 24 -4 27 -10z m55 -30 c0 -5 -2
-10 -4 -10 -3 0 -8 5 -11 10 -3 6 -1 10 4 10 6 0 11 -4 11 -10z m-210 -24 c0
-8 -7 -16 -15 -20 -17 -6 -18 -4 -9 18 8 20 24 21 24 2z m-97 -31 c-22 -17
-30 -11 -13 10 7 8 17 12 22 9 5 -3 1 -12 -9 -19z m162 5 c3 -5 1 -10 -4 -10
-6 0 -11 5 -11 10 0 6 2 10 4 10 3 0 8 -4 11 -10z m-295 -10 c0 -5 -5 -10 -11
-10 -5 0 -7 5 -4 10 3 6 8 10 11 10 2 0 4 -4 4 -10z m65 -3 c7 -7 14 -22 16
-32 2 -11 15 -22 29 -25 15 -4 20 -9 13 -13 -6 -4 -18 -4 -27 -1 -9 3 -16 1
-16 -6 0 -6 -4 -9 -8 -6 -5 3 -7 18 -4 35 3 23 0 30 -17 36 -12 3 -21 11 -21
16 0 13 19 11 35 -4z m365 3 c0 -5 -2 -10 -4 -10 -3 0 -8 5 -11 10 -3 6 -1 10
4 10 6 0 11 -4 11 -10z m-225 -40 c3 -5 1 -10 -4 -10 -6 0 -11 5 -11 10 0 6 2
10 4 10 3 0 8 -4 11 -10z m-235 -29 c0 -12 -20 -25 -27 -18 -7 7 6 27 18 27 5
0 9 -4 9 -9z m181 -34 c-10 -9 -11 -8 -5 6 3 10 9 15 12 12 3 -3 0 -11 -7 -18z
m779 13 c0 -5 -2 -10 -4 -10 -3 0 -8 5 -11 10 -3 6 -1 10 4 10 6 0 11 -4 11
-10z m-944 -27 c-10 -10 -19 5 -10 18 6 11 8 11 12 0 2 -7 1 -15 -2 -18z m-33
-20 c-7 -2 -19 -2 -25 0 -7 3 -2 5 12 5 14 0 19 -2 13 -5z m332 -23 c-3 -5
-11 -10 -16 -10 -6 0 -7 5 -4 10 3 6 11 10 16 10 6 0 7 -4 4 -10z m215 0 c0
-5 -2 -10 -4 -10 -3 0 -8 5 -11 10 -3 6 -1 10 4 10 6 0 11 -4 11 -10z"/>
<path d="M6875 3150 c-3 -5 -1 -10 4 -10 6 0 11 5 11 10 0 6 -2 10 -4 10 -3 0
-8 -4 -11 -10z"/>
<path d="M5447 3133 c-4 -3 -7 -11 -7 -17 0 -6 5 -5 12 2 6 6 9 14 7 17 -3 3
-9 2 -12 -2z"/>
<path d="M6477 3109 c-9 -5 -22 -7 -27 -4 -19 12 -30 -5 -17 -27 9 -16 9 -22
0 -25 -7 -2 -9 -11 -6 -19 7 -19 41 -9 70 22 12 13 26 24 32 24 5 0 12 4 15 9
9 14 -32 1 -45 -15 -12 -14 -39 -19 -39 -7 0 4 10 17 22 30 23 25 22 28 -5 12z"/>
<path d="M6105 3087 c-4 -17 -3 -37 3 -50 9 -18 11 -19 11 -4 1 22 21 23 21 1
0 -14 2 -14 16 -3 13 10 13 14 3 18 -20 6 -36 25 -41 47 -4 16 -6 14 -13 -9z"/>
<path d="M6345 3100 c-3 -5 -2 -10 4 -10 5 0 16 -3 25 -6 11 -4 16 -1 16 10 0
18 -35 22 -45 6z"/>
<path d="M5470 3075 c-10 -13 -9 -15 9 -15 12 0 21 6 21 15 0 8 -4 15 -9 15
-5 0 -14 -7 -21 -15z"/>
<path d="M5610 3060 c0 -5 5 -10 10 -10 6 0 10 5 10 10 0 6 -4 10 -10 10 -5 0
-10 -4 -10 -10z"/>
<path d="M5212 3018 c-6 -17 -10 -33 -8 -36 2 -2 7 5 10 16 4 11 17 23 29 26
18 5 20 8 7 16 -22 14 -24 13 -38 -22z"/>
<path d="M5475 3030 c-3 -6 1 -7 9 -4 18 7 21 14 7 14 -6 0 -13 -4 -16 -10z"/>
<path d="M5998 3033 c-28 -7 -21 -21 7 -15 14 2 25 8 25 13 0 9 -4 10 -32 2z"/>
<path d="M6040 3030 c0 -5 5 -10 10 -10 6 0 10 5 10 10 0 6 -4 10 -10 10 -5 0
-10 -4 -10 -10z"/>
<path d="M6320 3005 c0 -19 5 -35 10 -35 6 0 10 7 10 15 0 8 7 15 16 15 11 0
14 5 10 16 -3 9 -6 18 -6 20 0 2 -9 4 -20 4 -16 0 -20 -7 -20 -35z"/>
<path d="M5310 3019 c0 -5 5 -7 10 -4 6 3 10 8 10 11 0 2 -4 4 -10 4 -5 0 -10
-5 -10 -11z"/>
<path d="M5365 3020 c-8 -12 20 -24 35 -15 6 3 8 11 5 16 -8 12 -32 12 -40 -1z"/>
<path d="M5012 2998 c-7 -7 -12 -18 -12 -25 0 -7 -4 -13 -10 -13 -5 0 -10 -4
-10 -10 0 -5 9 -10 19 -10 14 0 20 9 23 35 2 19 4 35 3 35 -1 0 -6 -5 -13 -12z"/>
<path d="M5090 2995 c-10 -12 -10 -15 4 -15 9 0 16 7 16 15 0 8 -2 15 -4 15
-2 0 -9 -7 -16 -15z"/>
<path d="M5228 2975 c-3 -14 -2 -25 2 -25 4 0 10 11 12 25 3 14 2 25 -2 25 -4
0 -10 -11 -12 -25z"/>
<path d="M6033 2992 c-18 -11 -12 -52 7 -52 9 0 27 11 39 24 l22 23 -23 7
c-29 7 -30 7 -45 -2z"/>
<path d="M5148 2963 c-32 -16 -37 -33 -9 -33 10 0 26 11 35 25 18 28 14 29
-26 8z"/>
<path d="M4927 2953 c-4 -3 -7 -11 -7 -17 0 -6 5 -5 12 2 6 6 9 14 7 17 -3 3
-9 2 -12 -2z"/>
<path d="M6085 2930 c-3 -5 -3 -10 2 -10 4 0 2 -4 -5 -9 -11 -7 -11 -9 2 -14
10 -4 16 -1 16 8 0 8 5 15 10 15 6 0 10 5 10 10 0 6 -6 10 -14 10 -8 0 -18 -4
-21 -10z"/>
<path d="M5420 2870 c-8 -5 -11 -12 -7 -16 4 -4 13 -2 19 4 15 15 7 24 -12 12z"/>
<path d="M7407 2790 c-14 -11 -28 -20 -32 -20 -13 0 -126 -72 -121 -77 7 -7
92 35 106 52 6 7 25 17 41 20 16 4 34 15 39 26 14 25 -1 24 -33 -1z"/>
<path d="M7190 2671 c0 -5 -13 -14 -30 -21 -32 -13 -40 -30 -15 -30 9 0 18 7
21 15 4 8 12 15 18 15 7 0 21 7 32 15 19 14 18 14 -3 15 -13 0 -23 -4 -23 -9z"/>
<path d="M7090 2610 c-13 -11 -19 -20 -13 -20 14 0 49 28 42 34 -3 3 -16 -3
-29 -14z"/>
<path d="M7028 2573 c7 -3 16 -2 19 1 4 3 -2 6 -13 5 -11 0 -14 -3 -6 -6z"/>
<path d="M6956 2541 c-4 -5 3 -7 14 -4 23 6 26 13 6 13 -8 0 -17 -4 -20 -9z"/>
<path d="M6895 2509 c-11 -17 1 -21 15 -4 8 9 8 15 2 15 -6 0 -14 -5 -17 -11z"/>
<path d="M6845 2480 c-3 -5 -2 -10 4 -10 5 0 13 5 16 10 3 6 2 10 -4 10 -5 0
-13 -4 -16 -10z"/>
</g>
</svg>
